{
.appVersion = "3260";
.formatVersion = 3;
DisplayStrings = (
"Ű",
"́É",
ixixaxi,
BRabba,
J,
Z,
K,
"sš",
""
);
date = "2024-10-14 15:19:46 +0000";
familyName = "Snaha v02";
features = (
{
code = "script latn;
language dflt;
lookup SUB_0 {
	sub A H A hyphen M A R K by aha-mark;
	sub A H A hyphen S T A R by aha-star;
} SUB_0;
";
tag = liga;
}
);
fontMaster = (
{
guides = (
{
pos = (-128,498);
},
{
pos = (-984,672);
},
{
pos = (89,380);
}
);
id = m002;
metricValues = (
{
over = 16;
pos = 800;
},
{
over = 16;
pos = 700;
},
{
over = 16;
pos = 700;
},
{
over = 16;
pos = 370;
},
{
over = 16;
pos = 400;
},
{
over = -16;
},
{
over = -16;
pos = -200;
},
{
over = 16;
pos = 700;
},
{
over = 16;
pos = 400;
}
);
name = Light;
},
{
guides = (
{
pos = (-128,498);
},
{
pos = (-984,672);
},
{
pos = (89,380);
}
);
id = m01;
metricValues = (
{
over = 16;
pos = 800;
},
{
over = 16;
pos = 700;
},
{
over = 16;
pos = 700;
},
{
over = 16;
pos = 370;
},
{
over = 16;
pos = 400;
},
{
over = -16;
},
{
over = -16;
pos = -200;
},
{
over = 16;
pos = 700;
},
{
over = 16;
pos = 400;
}
);
name = Regular;
}
);
glyphs = (
{
glyphname = A;
lastChange = "2024-11-27 14:26:58 +0000";
layers = (
{
anchors = (
{
name = bottom;
pos = (259,0);
},
{
name = ogonek;
pos = (467,10);
},
{
name = top;
pos = (253,700);
}
);
layerId = m01;
shapes = (
{
closed = 1;
nodes = (
(440,700,l),
(112,700,l),
(112,640,l),
(280,640,l),
(280,0,l),
(440,0,l)
);
},
{
closed = 1;
nodes = (
(291,370,l),
(119,370,l),
(119,310,l),
(291,310,l)
);
},
{
closed = 1;
nodes = (
(130,700,l),
(70,700,l),
(70,0,l),
(130,0,l)
);
}
);
width = 510;
},
{
anchors = (
{
name = bottom;
pos = (259,0);
},
{
name = ogonek;
pos = (343,10);
},
{
name = top;
pos = (204,700);
}
);
layerId = m002;
shapes = (
{
closed = 1;
nodes = (
(340,700,l),
(112,700,l),
(112,640,l),
(280,640,l),
(280,0,l),
(340,0,l)
);
},
{
closed = 1;
nodes = (
(291,370,l),
(119,370,l),
(119,310,l),
(291,310,l)
);
},
{
closed = 1;
nodes = (
(130,700,l),
(70,700,l),
(70,0,l),
(130,0,l)
);
}
);
width = 410;
}
);
metricLeft = H;
metricRight = H;
unicode = 65;
},
{
glyphname = B;
lastChange = "2024-11-27 14:06:55 +0000";
layers = (
{
layerId = m01;
shapes = (
{
closed = 1;
nodes = (
(440,0,l),
(440,700,l),
(112,700,l),
(112,640,l),
(280,640,l),
(280,0,l)
);
},
{
closed = 1;
nodes = (
(291,0,l),
(291,60,l),
(119,60,l),
(119,0,l)
);
},
{
closed = 1;
nodes = (
(130,0,l),
(130,700,l),
(70,700,l),
(70,0,l)
);
},
{
closed = 1;
nodes = (
(291,310,l),
(291,370,l),
(119,370,l),
(119,310,l)
);
},
{
closed = 1;
nodes = (
(340,370,l),
(440,370,l),
(440,310,l),
(340,310,l)
);
}
);
width = 510;
},
{
layerId = m002;
shapes = (
{
closed = 1;
nodes = (
(440,0,l),
(440,700,l),
(112,700,l),
(112,640,l),
(280,640,l),
(280,0,l)
);
},
{
closed = 1;
nodes = (
(291,0,l),
(291,60,l),
(119,60,l),
(119,0,l)
);
},
{
closed = 1;
nodes = (
(130,0,l),
(130,700,l),
(70,700,l),
(70,0,l)
);
},
{
closed = 1;
nodes = (
(291,310,l),
(291,370,l),
(119,370,l),
(119,310,l)
);
},
{
closed = 1;
nodes = (
(340,370,l),
(440,370,l),
(440,310,l),
(340,310,l)
);
}
);
width = 510;
}
);
metricLeft = H;
metricRight = H;
unicode = 66;
},
{
glyphname = C;
lastChange = "2024-11-27 14:06:55 +0000";
layers = (
{
anchors = (
{
name = bottom;
pos = (213,0);
},
{
name = top;
pos = (230,700);
}
);
layerId = m01;
shapes = (
{
closed = 1;
nodes = (
(70,700,l),
(70,0,l),
(380,0,l),
(380,60,l),
(230,60,l),
(230,640,l),
(380,640,l),
(380,700,l)
);
}
);
width = 415;
},
{
anchors = (
{
name = bottom;
pos = (213,0);
},
{
name = top;
pos = (230,700);
}
);
layerId = m002;
shapes = (
{
closed = 1;
nodes = (
(70,700,l),
(70,0,l),
(380,0,l),
(380,60,l),
(230,60,l),
(230,640,l),
(380,640,l),
(380,700,l)
);
}
);
width = 415;
}
);
metricLeft = H;
metricRight = "=H/2";
unicode = 67;
},
{
glyphname = D;
lastChange = "2024-11-27 14:06:55 +0000";
layers = (
{
anchors = (
{
name = bottom;
pos = (270,0);
},
{
name = center;
pos = (150,350);
},
{
name = top;
pos = (270,700);
}
);
layerId = m01;
shapes = (
{
closed = 1;
nodes = (
(440,700,l),
(70,700,l),
(70,0,l),
(440,0,l)
);
},
{
closed = 1;
nodes = (
(230,60,l),
(230,640,l),
(380,640,l),
(380,60,l)
);
}
);
width = 510;
},
{
anchors = (
{
name = bottom;
pos = (270,0);
},
{
name = center;
pos = (150,350);
},
{
name = top;
pos = (270,700);
}
);
layerId = m002;
shapes = (
{
closed = 1;
nodes = (
(440,700,l),
(70,700,l),
(70,0,l),
(440,0,l)
);
},
{
closed = 1;
nodes = (
(230,60,l),
(230,640,l),
(380,640,l),
(380,60,l)
);
}
);
width = 510;
}
);
metricLeft = H;
metricRight = H;
unicode = 68;
},
{
glyphname = E;
lastChange = "2024-11-27 14:06:55 +0000";
layers = (
{
anchors = (
{
name = bottom;
pos = (243,0);
},
{
name = ogonek;
pos = (431,10);
},
{
name = top;
pos = (238,700);
},
{
name = topleft;
pos = (28,700);
}
);
layerId = m01;
shapes = (
{
closed = 1;
nodes = (
(230,0,l),
(230,700,l),
(70,700,l),
(70,0,l)
);
},
{
closed = 1;
nodes = (
(380,0,l),
(380,60,l),
(219,60,l),
(219,0,l)
);
},
{
closed = 1;
nodes = (
(370,311,l),
(370,371,l),
(209,370,l),
(209,310,l)
);
},
{
closed = 1;
nodes = (
(380,640,l),
(380,700,l),
(219,700,l),
(219,640,l)
);
}
);
width = 415;
},
{
anchors = (
{
name = bottom;
pos = (243,0);
},
{
name = ogonek;
pos = (431,10);
},
{
name = top;
pos = (238,700);
},
{
name = topleft;
pos = (28,700);
}
);
layerId = m002;
shapes = (
{
closed = 1;
nodes = (
(230,0,l),
(230,700,l),
(70,700,l),
(70,0,l)
);
},
{
closed = 1;
nodes = (
(380,0,l),
(380,60,l),
(219,60,l),
(219,0,l)
);
},
{
closed = 1;
nodes = (
(370,311,l),
(370,371,l),
(209,370,l),
(209,310,l)
);
},
{
closed = 1;
nodes = (
(380,640,l),
(380,700,l),
(219,700,l),
(219,640,l)
);
}
);
width = 415;
}
);
metricLeft = H;
metricRight = "=H/2";
unicode = 69;
},
{
glyphname = F;
lastChange = "2024-11-27 14:06:55 +0000";
layers = (
{
layerId = m01;
shapes = (
{
closed = 1;
nodes = (
(230,0,l),
(230,700,l),
(70,700,l),
(70,0,l)
);
},
{
closed = 1;
nodes = (
(230,0,l),
(230,700,l)
);
},
{
closed = 1;
nodes = (
(380,640,l),
(380,700,l),
(219,700,l),
(219,640,l)
);
},
{
closed = 1;
nodes = (
(369,311,l),
(369,371,l),
(208,370,l),
(208,310,l)
);
}
);
width = 415;
},
{
layerId = m002;
shapes = (
{
closed = 1;
nodes = (
(230,0,l),
(230,700,l),
(70,700,l),
(70,0,l)
);
},
{
closed = 1;
nodes = (
(230,0,l),
(230,700,l)
);
},
{
closed = 1;
nodes = (
(380,640,l),
(380,700,l),
(219,700,l),
(219,640,l)
);
},
{
closed = 1;
nodes = (
(369,311,l),
(369,371,l),
(208,370,l),
(208,310,l)
);
}
);
width = 415;
}
);
metricLeft = H;
metricRight = "=H/2";
unicode = 70;
},
{
glyphname = G;
lastChange = "2024-11-27 14:06:55 +0000";
layers = (
{
layerId = m01;
shapes = (
{
closed = 1;
nodes = (
(230,0,l),
(230,700,l),
(70,700,l),
(70,0,l)
);
},
{
closed = 1;
nodes = (
(391,0,l),
(391,60,l),
(219,60,l),
(219,0,l)
);
},
{
closed = 1;
nodes = (
(440,0,l),
(440,340,l),
(380,340,l),
(380,0,l)
);
},
{
closed = 1;
nodes = (
(391,280,l),
(391,340,l),
(280,340,l),
(280,280,l)
);
},
{
closed = 1;
nodes = (
(440,640,l),
(439,700,l),
(169,700,l),
(169,640,l)
);
}
);
width = 475;
},
{
layerId = m002;
shapes = (
{
closed = 1;
nodes = (
(230,0,l),
(230,700,l),
(70,700,l),
(70,0,l)
);
},
{
closed = 1;
nodes = (
(391,0,l),
(391,60,l),
(219,60,l),
(219,0,l)
);
},
{
closed = 1;
nodes = (
(440,0,l),
(440,340,l),
(380,340,l),
(380,0,l)
);
},
{
closed = 1;
nodes = (
(391,280,l),
(391,340,l),
(280,340,l),
(280,280,l)
);
},
{
closed = 1;
nodes = (
(440,640,l),
(439,700,l),
(169,700,l),
(169,640,l)
);
}
);
width = 475;
}
);
metricLeft = H;
metricRight = "=H/2";
unicode = 71;
},
{
color = 4;
glyphname = H;
lastChange = "2024-11-27 14:06:55 +0000";
layers = (
{
layerId = m01;
shapes = (
{
closed = 1;
nodes = (
(280,700,l),
(440,700,l),
(440,0,l),
(280,0,l)
);
},
{
closed = 1;
nodes = (
(130,700,l),
(130,0,l),
(70,0,l),
(70,700,l)
);
},
{
closed = 1;
nodes = (
(291,370,l),
(291,310,l),
(119,310,l),
(119,370,l)
);
}
);
width = 510;
},
{
layerId = "B89D507F-2966-4FA6-B71C-9BE74F77134D";
width = 600;
},
{
layerId = m002;
shapes = (
{
closed = 1;
nodes = (
(280,700,l),
(440,700,l),
(440,0,l),
(280,0,l)
);
},
{
closed = 1;
nodes = (
(130,700,l),
(130,0,l),
(70,0,l),
(70,700,l)
);
},
{
closed = 1;
nodes = (
(291,370,l),
(291,310,l),
(119,310,l),
(119,370,l)
);
}
);
width = 510;
}
);
unicode = 72;
},
{
glyphname = I;
lastChange = "2024-11-27 14:06:55 +0000";
layers = (
{
anchors = (
{
name = bottom;
pos = (100,0);
},
{
name = ogonek;
pos = (216,10);
},
{
name = top;
pos = (100,700);
},
{
name = topleft;
pos = (-25,700);
}
);
layerId = m01;
shapes = (
{
closed = 1;
nodes = (
(70,700,l),
(70,0,l),
(130,0,l),
(130,700,l)
);
}
);
width = 200;
},
{
anchors = (
{
name = bottom;
pos = (100,0);
},
{
name = ogonek;
pos = (216,10);
},
{
name = top;
pos = (100,700);
},
{
name = topleft;
pos = (-25,700);
}
);
layerId = m002;
shapes = (
{
closed = 1;
nodes = (
(70,700,l),
(70,0,l),
(130,0,l),
(130,700,l)
);
}
);
width = 200;
}
);
metricLeft = H;
metricRight = H;
unicode = 73;
},
{
glyphname = J;
lastChange = "2024-11-27 14:06:55 +0000";
layers = (
{
layerId = m01;
shapes = (
{
closed = 1;
nodes = (
(135,160,l),
(195,160,l),
(195,60,l),
(135,60,l)
);
},
{
closed = 1;
nodes = (
(135,60,l),
(135,0,l),
(285,0,l),
(285,60,l)
);
},
{
closed = 1;
nodes = (
(435,650,l),
(435,700,l),
(285,700,l),
(285,0,l),
(435,0,l)
);
}
);
width = 500;
},
{
layerId = m002;
shapes = (
{
closed = 1;
nodes = (
(135,160,l),
(195,160,l),
(195,60,l),
(135,60,l)
);
},
{
closed = 1;
nodes = (
(135,60,l),
(135,0,l),
(285,0,l),
(285,60,l)
);
},
{
closed = 1;
nodes = (
(435,650,l),
(435,700,l),
(285,700,l),
(285,0,l),
(435,0,l)
);
}
);
width = 500;
}
);
unicode = 74;
},
{
glyphname = K;
lastChange = "2024-11-27 14:06:55 +0000";
layers = (
{
layerId = m01;
shapes = (
{
closed = 1;
nodes = (
(130,0,l),
(130,700,l),
(70,700,l),
(70,0,l)
);
},
{
closed = 1;
nodes = (
(340,313,l),
(340,370,l),
(125,370,l),
(125,313,l)
);
},
{
closed = 1;
nodes = (
(280,370,l),
(441,370,l),
(441,700,l),
(280,700,l)
);
},
{
closed = 1;
nodes = (
(280,0,l),
(441,0,l),
(441,313,l),
(280,313,l)
);
}
);
width = 511;
},
{
layerId = m002;
shapes = (
{
closed = 1;
nodes = (
(130,0,l),
(130,700,l),
(70,700,l),
(70,0,l)
);
},
{
closed = 1;
nodes = (
(340,313,l),
(340,370,l),
(125,370,l),
(125,313,l)
);
},
{
closed = 1;
nodes = (
(280,370,l),
(441,370,l),
(441,700,l),
(280,700,l)
);
},
{
closed = 1;
nodes = (
(280,0,l),
(441,0,l),
(441,313,l),
(280,313,l)
);
}
);
width = 511;
}
);
metricLeft = H;
metricRight = H;
unicode = 75;
},
{
glyphname = L;
lastChange = "2024-11-27 14:06:55 +0000";
layers = (
{
anchors = (
{
name = bottom;
pos = (209,0);
},
{
name = center;
pos = (209,350);
},
{
name = top;
pos = (149,700);
},
{
name = topright;
pos = (398,700);
}
);
layerId = m01;
shapes = (
{
closed = 1;
nodes = (
(70,0,l),
(70,700,l),
(230,700,l),
(230,0,l)
);
},
{
closed = 1;
nodes = (
(380,0,l),
(380,60,l),
(230,60,l),
(230,0,l)
);
}
);
width = 415;
},
{
anchors = (
{
name = bottom;
pos = (209,0);
},
{
name = center;
pos = (209,350);
},
{
name = top;
pos = (149,700);
},
{
name = topright;
pos = (398,700);
}
);
layerId = m002;
shapes = (
{
closed = 1;
nodes = (
(70,0,l),
(70,700,l),
(230,700,l),
(230,0,l)
);
},
{
closed = 1;
nodes = (
(380,0,l),
(380,60,l),
(230,60,l),
(230,0,l)
);
}
);
width = 415;
}
);
metricLeft = H;
metricRight = "=H/2";
unicode = 76;
},
{
glyphname = Lcaron;
lastChange = "2024-11-27 14:06:55 +0000";
layers = (
{
layerId = m01;
shapes = (
{
pos = (-11,0);
ref = L;
},
{
closed = 1;
nodes = (
(341,539,l),
(341,699,l),
(281,699,l),
(281,539,l)
);
}
);
width = 418;
},
{
layerId = m002;
shapes = (
{
pos = (-11,0);
ref = L;
},
{
closed = 1;
nodes = (
(341,539,l),
(341,699,l),
(281,699,l),
(281,539,l)
);
}
);
width = 418;
}
);
unicode = 317;
},
{
glyphname = M;
lastChange = "2024-11-27 14:06:55 +0000";
layers = (
{
layerId = m01;
shapes = (
{
closed = 1;
nodes = (
(654,0,l),
(654,700,l),
(494,700,l),
(494,0,l)
);
},
{
closed = 1;
nodes = (
(130,0,l),
(130,700,l),
(70,700,l),
(70,0,l)
);
},
{
closed = 1;
nodes = (
(348,0,l),
(137,700,l),
(74,700,l),
(285,0,l)
);
},
{
closed = 1;
nodes = (
(552,700,l),
(489,700,l),
(278,0,l),
(341,0,l)
);
}
);
width = 724;
},
{
layerId = m002;
shapes = (
{
closed = 1;
nodes = (
(654,0,l),
(654,700,l),
(494,700,l),
(494,0,l)
);
},
{
closed = 1;
nodes = (
(130,0,l),
(130,700,l),
(70,700,l),
(70,0,l)
);
},
{
closed = 1;
nodes = (
(348,0,l),
(137,700,l),
(74,700,l),
(285,0,l)
);
},
{
closed = 1;
nodes = (
(552,700,l),
(489,700,l),
(278,0,l),
(341,0,l)
);
}
);
width = 724;
}
);
metricLeft = H;
metricRight = H;
unicode = 77;
},
{
glyphname = N;
lastChange = "2024-11-27 14:06:55 +0000";
layers = (
{
anchors = (
{
name = bottom;
pos = (256,0);
},
{
name = top;
pos = (256,700);
}
);
layerId = m01;
shapes = (
{
closed = 1;
nodes = (
(440,0,l),
(440,700,l),
(280,700,l),
(280,0,l)
);
},
{
closed = 1;
nodes = (
(130,0,l),
(130,700,l),
(70,700,l),
(70,0,l)
);
},
{
closed = 1;
nodes = (
(344,0,l),
(133,700,l),
(70,700,l),
(281,0,l)
);
}
);
width = 510;
},
{
anchors = (
{
name = bottom;
pos = (256,0);
},
{
name = top;
pos = (256,700);
}
);
layerId = m002;
shapes = (
{
closed = 1;
nodes = (
(440,0,l),
(440,700,l),
(280,700,l),
(280,0,l)
);
},
{
closed = 1;
nodes = (
(130,0,l),
(130,700,l),
(70,700,l),
(70,0,l)
);
},
{
closed = 1;
nodes = (
(344,0,l),
(133,700,l),
(70,700,l),
(281,0,l)
);
}
);
width = 510;
}
);
metricLeft = H;
metricRight = H;
unicode = 78;
},
{
glyphname = O;
lastChange = "2024-11-27 14:06:55 +0000";
layers = (
{
anchors = (
{
name = bottom;
pos = (252,0);
},
{
name = center;
pos = (252,350);
},
{
name = ogonek;
pos = (452,10);
},
{
name = top;
pos = (252,700);
},
{
name = topleft;
pos = (22,700);
},
{
name = topright;
pos = (482,700);
}
);
layerId = m01;
shapes = (
{
closed = 1;
nodes = (
(440,0,l),
(440,700,l),
(70,700,l),
(70,0,l)
);
},
{
closed = 1;
nodes = (
(130,640,l),
(280,640,l),
(280,60,l),
(130,60,l)
);
}
);
width = 510;
},
{
anchors = (
{
name = bottom;
pos = (252,0);
},
{
name = center;
pos = (252,350);
},
{
name = ogonek;
pos = (452,10);
},
{
name = top;
pos = (252,700);
},
{
name = topleft;
pos = (22,700);
},
{
name = topright;
pos = (482,700);
}
);
layerId = m002;
shapes = (
{
closed = 1;
nodes = (
(440,0,l),
(440,700,l),
(70,700,l),
(70,0,l)
);
},
{
closed = 1;
nodes = (
(130,640,l),
(280,640,l),
(280,60,l),
(130,60,l)
);
}
);
width = 510;
}
);
metricLeft = H;
metricRight = H;
unicode = 79;
},
{
glyphname = P;
lastChange = "2024-11-27 14:06:55 +0000";
layers = (
{
layerId = m01;
shapes = (
{
closed = 1;
nodes = (
(440,283,l),
(440,700,l),
(112,700,l),
(112,640,l),
(280,640,l),
(280,283,l)
);
},
{
closed = 1;
nodes = (
(130,0,l),
(130,700,l),
(70,700,l),
(70,0,l)
);
},
{
closed = 1;
nodes = (
(291,283,l),
(291,343,l),
(119,343,l),
(119,283,l)
);
}
);
width = 475;
},
{
layerId = m002;
shapes = (
{
closed = 1;
nodes = (
(440,283,l),
(440,700,l),
(112,700,l),
(112,640,l),
(280,640,l),
(280,283,l)
);
},
{
closed = 1;
nodes = (
(130,0,l),
(130,700,l),
(70,700,l),
(70,0,l)
);
},
{
closed = 1;
nodes = (
(291,283,l),
(291,343,l),
(119,343,l),
(119,283,l)
);
}
);
width = 475;
}
);
metricLeft = H;
metricRight = "=H/2";
unicode = 80;
},
{
glyphname = Q;
lastChange = "2024-11-27 14:06:55 +0000";
layers = (
{
layerId = m01;
shapes = (
{
closed = 1;
nodes = (
(235,-120,l),
(235,120,l),
(175,120,l),
(175,-120,l)
);
},
{
ref = O;
}
);
width = 510;
},
{
layerId = m002;
shapes = (
{
closed = 1;
nodes = (
(235,-120,l),
(235,120,l),
(175,120,l),
(175,-120,l)
);
},
{
ref = O;
}
);
width = 510;
}
);
metricLeft = H;
metricRight = H;
unicode = 81;
},
{
glyphname = R;
lastChange = "2024-11-27 14:06:55 +0000";
layers = (
{
anchors = (
{
name = bottom;
pos = (257,0);
},
{
name = top;
pos = (257,700);
}
);
layerId = m01;
shapes = (
{
closed = 1;
nodes = (
(440,0,l),
(440,700,l),
(112,700,l),
(112,640,l),
(280,640,l),
(280,0,l)
);
},
{
closed = 1;
nodes = (
(130,0,l),
(130,700,l),
(70,700,l),
(70,0,l)
);
},
{
closed = 1;
nodes = (
(291,310,l),
(291,370,l),
(119,370,l),
(119,310,l)
);
},
{
closed = 1;
nodes = (
(337,370,l),
(441,370,l),
(441,310,l),
(337,310,l)
);
}
);
width = 511;
},
{
anchors = (
{
name = bottom;
pos = (257,0);
},
{
name = top;
pos = (257,700);
}
);
layerId = m002;
shapes = (
{
closed = 1;
nodes = (
(440,0,l),
(440,700,l),
(112,700,l),
(112,640,l),
(280,640,l),
(280,0,l)
);
},
{
closed = 1;
nodes = (
(130,0,l),
(130,700,l),
(70,700,l),
(70,0,l)
);
},
{
closed = 1;
nodes = (
(291,310,l),
(291,370,l),
(119,370,l),
(119,310,l)
);
},
{
closed = 1;
nodes = (
(337,370,l),
(441,370,l),
(441,310,l),
(337,310,l)
);
}
);
width = 511;
}
);
metricLeft = H;
metricRight = H;
unicode = 82;
},
{
glyphname = S;
lastChange = "2024-11-27 14:06:55 +0000";
layers = (
{
anchors = (
{
name = bottom;
pos = (260,0);
},
{
name = top;
pos = (335,700);
}
);
layerId = m01;
shapes = (
{
closed = 1;
nodes = (
(335,0,l),
(185,0,l),
(185,700,l),
(335,700,l)
);
},
{
closed = 1;
nodes = (
(35,160,l),
(95,160,l),
(95,60,l),
(35,60,l)
);
},
{
closed = 1;
nodes = (
(35,60,l),
(35,0,l),
(185,0,l),
(185,60,l)
);
},
{
closed = 1;
nodes = (
(485,540,l),
(425,540,l),
(425,640,l),
(485,640,l)
);
},
{
closed = 1;
nodes = (
(485,640,l),
(485,700,l),
(335,700,l),
(335,640,l)
);
}
);
width = 520;
},
{
anchors = (
{
name = bottom;
pos = (260,0);
},
{
name = top;
pos = (335,700);
}
);
layerId = m002;
shapes = (
{
closed = 1;
nodes = (
(335,0,l),
(185,0,l),
(185,700,l),
(335,700,l)
);
},
{
closed = 1;
nodes = (
(35,160,l),
(95,160,l),
(95,60,l),
(35,60,l)
);
},
{
closed = 1;
nodes = (
(35,60,l),
(35,0,l),
(185,0,l),
(185,60,l)
);
},
{
closed = 1;
nodes = (
(485,540,l),
(425,540,l),
(425,640,l),
(485,640,l)
);
},
{
closed = 1;
nodes = (
(485,640,l),
(485,700,l),
(335,700,l),
(335,640,l)
);
}
);
width = 520;
}
);
metricLeft = "=H/2";
metricRight = "=H/2";
unicode = 83;
},
{
glyphname = T;
lastChange = "2024-11-27 14:06:55 +0000";
layers = (
{
anchors = (
{
name = bottom;
pos = (260,0);
},
{
name = center;
pos = (260,350);
},
{
name = top;
pos = (260,700);
}
);
layerId = m01;
shapes = (
{
closed = 1;
nodes = (
(185,700,l),
(335,700,l),
(335,0,l),
(185,0,l)
);
},
{
closed = 1;
nodes = (
(35,640,l),
(185,640,l),
(185,700,l),
(35,700,l)
);
},
{
closed = 1;
nodes = (
(335,640,l),
(485,640,l),
(485,700,l),
(335,700,l)
);
}
);
width = 520;
},
{
anchors = (
{
name = bottom;
pos = (260,0);
},
{
name = center;
pos = (260,350);
},
{
name = top;
pos = (260,700);
}
);
layerId = m002;
shapes = (
{
closed = 1;
nodes = (
(185,700,l),
(335,700,l),
(335,0,l),
(185,0,l)
);
},
{
closed = 1;
nodes = (
(35,640,l),
(185,640,l),
(185,700,l),
(35,700,l)
);
},
{
closed = 1;
nodes = (
(335,640,l),
(485,640,l),
(485,700,l),
(335,700,l)
);
}
);
width = 520;
}
);
metricLeft = "=H/2";
metricRight = "=H/2";
unicode = 84;
},
{
glyphname = U;
lastChange = "2024-11-27 14:06:55 +0000";
layers = (
{
anchors = (
{
name = bottom;
pos = (263,0);
},
{
name = ogonek;
pos = (463,10);
},
{
name = top;
pos = (263,700);
},
{
name = topright;
pos = (493,700);
}
);
layerId = m01;
shapes = (
{
closed = 1;
nodes = (
(440,0,l),
(440,700,l),
(280,700,l),
(280,60,l),
(112,60,l),
(112,0,l)
);
},
{
closed = 1;
nodes = (
(130,0,l),
(130,700,l),
(70,700,l),
(70,0,l)
);
}
);
width = 510;
},
{
anchors = (
{
name = bottom;
pos = (263,0);
},
{
name = ogonek;
pos = (463,10);
},
{
name = top;
pos = (263,700);
},
{
name = topright;
pos = (493,700);
}
);
layerId = m002;
shapes = (
{
closed = 1;
nodes = (
(440,0,l),
(440,700,l),
(280,700,l),
(280,60,l),
(112,60,l),
(112,0,l)
);
},
{
closed = 1;
nodes = (
(130,0,l),
(130,700,l),
(70,700,l),
(70,0,l)
);
}
);
width = 510;
}
);
metricLeft = H;
metricRight = H;
unicode = 85;
},
{
glyphname = V;
lastChange = "2024-11-27 14:06:55 +0000";
layers = (
{
layerId = m01;
shapes = (
{
closed = 1;
nodes = (
(402,700,l),
(245,700,l),
(224,0,l),
(399,0,l)
);
},
{
closed = 1;
nodes = (
(96,700,l),
(35,700,l),
(185,0,l),
(246,0,l)
);
}
);
width = 472;
},
{
layerId = m002;
shapes = (
{
closed = 1;
nodes = (
(402,700,l),
(245,700,l),
(224,0,l),
(399,0,l)
);
},
{
closed = 1;
nodes = (
(96,700,l),
(35,700,l),
(185,0,l),
(246,0,l)
);
}
);
width = 472;
}
);
metricLeft = "=H/2";
metricRight = H;
unicode = 86;
},
{
glyphname = W;
lastChange = "2024-11-27 14:06:55 +0000";
layers = (
{
layerId = m01;
shapes = (
{
closed = 1;
nodes = (
(619,700,l),
(459,700,l),
(460,0,l),
(616,0,l)
);
},
{
closed = 1;
nodes = (
(310,700,l),
(249,700,l),
(399,0,l),
(460,0,l)
);
},
{
closed = 1;
nodes = (
(308,700,l),
(245,700,l),
(246,0,l),
(305,0,l)
);
},
{
closed = 1;
nodes = (
(96,700,l),
(35,700,l),
(185,0,l),
(246,0,l)
);
}
);
width = 689;
},
{
layerId = m002;
shapes = (
{
closed = 1;
nodes = (
(619,700,l),
(459,700,l),
(460,0,l),
(616,0,l)
);
},
{
closed = 1;
nodes = (
(310,700,l),
(249,700,l),
(399,0,l),
(460,0,l)
);
},
{
closed = 1;
nodes = (
(308,700,l),
(245,700,l),
(246,0,l),
(305,0,l)
);
},
{
closed = 1;
nodes = (
(96,700,l),
(35,700,l),
(185,0,l),
(246,0,l)
);
}
);
width = 689;
}
);
metricLeft = "=H/2";
metricRight = H;
unicode = 87;
},
{
glyphname = X;
lastChange = "2024-11-27 14:06:55 +0000";
layers = (
{
layerId = m01;
shapes = (
{
closed = 1;
nodes = (
(370,0,l),
(370,700,l),
(210,700,l),
(210,0,l)
);
},
{
closed = 1;
nodes = (
(35,700,l),
(260,256,l),
(316,281,l),
(102,700,l)
);
},
{
closed = 1;
nodes = (
(546,0,l),
(321,444,l),
(265,419,l),
(479,0,l)
);
}
);
width = 581;
},
{
layerId = m002;
shapes = (
{
closed = 1;
nodes = (
(370,0,l),
(370,700,l),
(210,700,l),
(210,0,l)
);
},
{
closed = 1;
nodes = (
(35,700,l),
(260,256,l),
(316,281,l),
(102,700,l)
);
},
{
closed = 1;
nodes = (
(546,0,l),
(321,444,l),
(265,419,l),
(479,0,l)
);
}
);
width = 581;
}
);
metricLeft = "=H/2";
metricRight = "=H/2";
unicode = 88;
},
{
glyphname = Y;
lastChange = "2024-11-27 14:06:55 +0000";
layers = (
{
anchors = (
{
name = bottom;
pos = (208,0);
},
{
name = top;
pos = (208,700);
},
{
name = topleft;
pos = (-15,700);
}
);
layerId = m01;
shapes = (
{
closed = 1;
nodes = (
(405,0,l),
(405,700,l),
(245,700,l),
(245,0,l)
);
},
{
closed = 1;
nodes = (
(35,700,l),
(260,256,l),
(316,281,l),
(102,700,l)
);
}
);
width = 475;
},
{
anchors = (
{
name = bottom;
pos = (208,0);
},
{
name = top;
pos = (208,700);
},
{
name = topleft;
pos = (-15,700);
}
);
layerId = m002;
shapes = (
{
closed = 1;
nodes = (
(405,0,l),
(405,700,l),
(245,700,l),
(245,0,l)
);
},
{
closed = 1;
nodes = (
(35,700,l),
(260,256,l),
(316,281,l),
(102,700,l)
);
}
);
width = 475;
}
);
metricLeft = "=H/2";
metricRight = H;
unicode = 89;
},
{
glyphname = Z;
lastChange = "2024-11-27 14:06:55 +0000";
layers = (
{
anchors = (
{
name = bottom;
pos = (260,0);
},
{
name = center;
pos = (260,350);
},
{
name = top;
pos = (184,700);
}
);
layerId = m01;
shapes = (
{
closed = 1;
nodes = (
(335,700,l),
(335,0,l),
(185,0,l),
(185,700,l)
);
},
{
closed = 1;
nodes = (
(426,60,l),
(426,160,l),
(486,160,l),
(486,60,l)
);
},
{
closed = 1;
nodes = (
(336,0,l),
(486,0,l),
(486,60,l),
(336,60,l)
);
},
{
closed = 1;
nodes = (
(95,640,l),
(95,540,l),
(35,540,l),
(35,640,l)
);
},
{
closed = 1;
nodes = (
(185,700,l),
(35,700,l),
(35,640,l),
(185,640,l)
);
}
);
width = 521;
},
{
anchors = (
{
name = bottom;
pos = (260,0);
},
{
name = center;
pos = (260,350);
},
{
name = top;
pos = (184,700);
}
);
layerId = m002;
shapes = (
{
closed = 1;
nodes = (
(335,700,l),
(335,0,l),
(185,0,l),
(185,700,l)
);
},
{
closed = 1;
nodes = (
(426,60,l),
(426,160,l),
(486,160,l),
(486,60,l)
);
},
{
closed = 1;
nodes = (
(336,0,l),
(486,0,l),
(486,60,l),
(336,60,l)
);
},
{
closed = 1;
nodes = (
(95,640,l),
(95,540,l),
(35,540,l),
(35,640,l)
);
},
{
closed = 1;
nodes = (
(185,700,l),
(35,700,l),
(35,640,l),
(185,640,l)
);
}
);
width = 521;
}
);
metricLeft = "=H/2";
metricRight = "=H/2";
unicode = 90;
},
{
glyphname = I.001;
lastChange = "2024-11-27 14:06:55 +0000";
layers = (
{
layerId = m01;
shapes = (
{
closed = 1;
nodes = (
(105,700,l),
(105,1,l),
(255,1,l),
(255,700,l)
);
}
);
width = 360;
},
{
layerId = m002;
shapes = (
{
closed = 1;
nodes = (
(105,700,l),
(105,1,l),
(255,1,l),
(255,700,l)
);
}
);
width = 360;
}
);
},
{
glyphname = M.001;
lastChange = "2024-11-27 14:06:55 +0000";
layers = (
{
layerId = m01;
shapes = (
{
closed = 1;
nodes = (
(755,0,l),
(755,700,l),
(423,700,l),
(423,643,l),
(594,643,l),
(594,0,l)
);
},
{
closed = 1;
nodes = (
(127,0,l),
(127,700,l),
(70,700,l),
(70,0,l)
);
},
{
closed = 1;
nodes = (
(441,0,l),
(441,700,l),
(109,700,l),
(109,643,l),
(280,643,l),
(280,0,l)
);
}
);
width = 825;
},
{
layerId = m002;
shapes = (
{
closed = 1;
nodes = (
(755,0,l),
(755,700,l),
(423,700,l),
(423,643,l),
(594,643,l),
(594,0,l)
);
},
{
closed = 1;
nodes = (
(127,0,l),
(127,700,l),
(70,700,l),
(70,0,l)
);
},
{
closed = 1;
nodes = (
(441,0,l),
(441,700,l),
(109,700,l),
(109,643,l),
(280,643,l),
(280,0,l)
);
}
);
width = 825;
}
);
metricLeft = H;
metricRight = H;
},
{
glyphname = N.001;
lastChange = "2024-11-27 14:06:55 +0000";
layers = (
{
layerId = m01;
shapes = (
{
closed = 1;
nodes = (
(441,0,l),
(441,700,l),
(109,700,l),
(109,643,l),
(280,643,l),
(280,0,l)
);
},
{
closed = 1;
nodes = (
(127,0,l),
(127,700,l),
(70,700,l),
(70,0,l)
);
}
);
width = 511;
},
{
layerId = m002;
shapes = (
{
closed = 1;
nodes = (
(441,0,l),
(441,700,l),
(109,700,l),
(109,643,l),
(280,643,l),
(280,0,l)
);
},
{
closed = 1;
nodes = (
(127,0,l),
(127,700,l),
(70,700,l),
(70,0,l)
);
}
);
width = 511;
}
);
metricLeft = H;
metricRight = H;
},
{
glyphname = S.001;
lastChange = "2024-11-27 14:06:55 +0000";
layers = (
{
layerId = m01;
shapes = (
{
closed = 1;
nodes = (
(410,0,l),
(35,0,l),
(35,250,l),
(91,250,l),
(91,50,l),
(260,50,l),
(260,700,l),
(635,700,l),
(635,450,l),
(585,450,l),
(585,650,l),
(410,650,l)
);
}
);
width = 670;
},
{
layerId = m002;
shapes = (
{
closed = 1;
nodes = (
(410,0,l),
(35,0,l),
(35,250,l),
(91,250,l),
(91,50,l),
(260,50,l),
(260,700,l),
(635,700,l),
(635,450,l),
(585,450,l),
(585,650,l),
(410,650,l)
);
}
);
width = 670;
}
);
metricLeft = "=H/2";
metricRight = "=H/2";
},
{
glyphname = V.001;
lastChange = "2024-11-27 14:06:55 +0000";
layers = (
{
layerId = m01;
shapes = (
{
closed = 1;
nodes = (
(402,0,l),
(402,57,l),
(231,57,l),
(231,700,l),
(70,700,l),
(70,0,l)
);
},
{
closed = 1;
nodes = (
(441,0,l),
(441,700,l),
(384,700,l),
(384,0,l)
);
}
);
width = 511;
},
{
layerId = m002;
shapes = (
{
closed = 1;
nodes = (
(402,0,l),
(402,57,l),
(231,57,l),
(231,700,l),
(70,700,l),
(70,0,l)
);
},
{
closed = 1;
nodes = (
(441,0,l),
(441,700,l),
(384,700,l),
(384,0,l)
);
}
);
width = 511;
}
);
metricLeft = H;
metricRight = H;
},
{
glyphname = V.002;
lastChange = "2024-11-27 14:06:55 +0000";
layers = (
{
layerId = m01;
shapes = (
{
closed = 1;
nodes = (
(367,0,l),
(367,57,l),
(349,57,l),
(196,700,l),
(35,700,l),
(188,0,l)
);
},
{
closed = 1;
nodes = (
(406,0,l),
(406,700,l),
(349,700,l),
(349,0,l)
);
}
);
width = 476;
},
{
layerId = m002;
shapes = (
{
closed = 1;
nodes = (
(367,0,l),
(367,57,l),
(349,57,l),
(196,700,l),
(35,700,l),
(188,0,l)
);
},
{
closed = 1;
nodes = (
(406,0,l),
(406,700,l),
(349,700,l),
(349,0,l)
);
}
);
width = 476;
}
);
metricLeft = "=H/2";
metricRight = H;
},
{
glyphname = V.003;
lastChange = "2024-11-27 14:06:55 +0000";
layers = (
{
layerId = m01;
shapes = (
{
closed = 1;
nodes = (
(252,0,l),
(231,700,l),
(70,700,l),
(73,0,l)
);
},
{
closed = 1;
nodes = (
(291,0,l),
(439,689,l),
(384,700,l),
(234,0,l)
);
}
);
width = 474;
},
{
layerId = m002;
shapes = (
{
closed = 1;
nodes = (
(252,0,l),
(231,700,l),
(70,700,l),
(73,0,l)
);
},
{
closed = 1;
nodes = (
(291,0,l),
(439,689,l),
(384,700,l),
(234,0,l)
);
}
);
width = 474;
}
);
metricLeft = H;
metricRight = "=H/2";
},
{
glyphname = W.001;
lastChange = "2024-11-27 14:06:55 +0000";
layers = (
{
layerId = m01;
shapes = (
{
closed = 1;
nodes = (
(252,0,l),
(231,700,l),
(70,700,l),
(73,0,l)
);
},
{
closed = 1;
nodes = (
(291,0,l),
(441,700,l),
(384,700,l),
(234,0,l)
);
},
{
closed = 1;
nodes = (
(564,0,l),
(543,700,l),
(382,700,l),
(385,0,l)
);
},
{
closed = 1;
nodes = (
(603,0,l),
(753,700,l),
(696,700,l),
(546,0,l)
);
}
);
width = 788;
},
{
layerId = m002;
shapes = (
{
closed = 1;
nodes = (
(252,0,l),
(231,700,l),
(70,700,l),
(73,0,l)
);
},
{
closed = 1;
nodes = (
(291,0,l),
(441,700,l),
(384,700,l),
(234,0,l)
);
},
{
closed = 1;
nodes = (
(564,0,l),
(543,700,l),
(382,700,l),
(385,0,l)
);
},
{
closed = 1;
nodes = (
(603,0,l),
(753,700,l),
(696,700,l),
(546,0,l)
);
}
);
width = 788;
}
);
metricLeft = H;
metricRight = "=H/2";
},
{
glyphname = W.002;
lastChange = "2024-11-27 14:06:55 +0000";
layers = (
{
layerId = m01;
shapes = (
{
closed = 1;
nodes = (
(719,700,l),
(559,700,l),
(560,0,l),
(716,0,l)
);
},
{
closed = 1;
nodes = (
(410,700,l),
(349,700,l),
(499,0,l),
(560,0,l)
);
},
{
closed = 1;
nodes = (
(408,700,l),
(245,700,l),
(246,0,l),
(405,0,l)
);
},
{
closed = 1;
nodes = (
(96,700,l),
(35,700,l),
(185,0,l),
(246,0,l)
);
}
);
width = 789;
},
{
layerId = m002;
shapes = (
{
closed = 1;
nodes = (
(719,700,l),
(559,700,l),
(560,0,l),
(716,0,l)
);
},
{
closed = 1;
nodes = (
(410,700,l),
(349,700,l),
(499,0,l),
(560,0,l)
);
},
{
closed = 1;
nodes = (
(408,700,l),
(245,700,l),
(246,0,l),
(405,0,l)
);
},
{
closed = 1;
nodes = (
(96,700,l),
(35,700,l),
(185,0,l),
(246,0,l)
);
}
);
width = 789;
}
);
metricLeft = "=H/2";
metricRight = H;
},
{
glyphname = X.001;
lastChange = "2024-11-27 14:06:55 +0000";
layers = (
{
layerId = m01;
shapes = (
{
closed = 1;
nodes = (
(352,700,l),
(191,700,l),
(191,0,l),
(352,0,l)
);
},
{
closed = 1;
nodes = (
(507,366,l),
(450,366,l),
(450,0,l),
(507,0,l)
);
},
{
closed = 1;
nodes = (
(507,379,l),
(35,379,l),
(35,322,l),
(507,322,l)
);
},
{
closed = 1;
nodes = (
(92,700,l),
(35,700,l),
(35,334,l),
(92,334,l)
);
}
);
width = 542;
},
{
layerId = m002;
shapes = (
{
closed = 1;
nodes = (
(352,700,l),
(191,700,l),
(191,0,l),
(352,0,l)
);
},
{
closed = 1;
nodes = (
(507,366,l),
(450,366,l),
(450,0,l),
(507,0,l)
);
},
{
closed = 1;
nodes = (
(507,379,l),
(35,379,l),
(35,322,l),
(507,322,l)
);
},
{
closed = 1;
nodes = (
(92,700,l),
(35,700,l),
(35,334,l),
(92,334,l)
);
}
);
width = 542;
}
);
metricLeft = "=H/2";
metricRight = "=H/2";
},
{
glyphname = Y.001;
lastChange = "2024-11-27 14:06:55 +0000";
layers = (
{
layerId = m01;
shapes = (
{
closed = 1;
nodes = (
(406,0,l),
(406,700,l),
(245,700,l),
(245,0,l)
);
},
{
closed = 1;
nodes = (
(256,283,l),
(256,340,l),
(81,340,l),
(81,283,l)
);
},
{
closed = 1;
nodes = (
(92,283,l),
(92,700,l),
(35,700,l),
(35,283,l)
);
}
);
width = 476;
},
{
layerId = m002;
shapes = (
{
closed = 1;
nodes = (
(406,0,l),
(406,700,l),
(245,700,l),
(245,0,l)
);
},
{
closed = 1;
nodes = (
(256,283,l),
(256,340,l),
(81,340,l),
(81,283,l)
);
},
{
closed = 1;
nodes = (
(92,283,l),
(92,700,l),
(35,700,l),
(35,283,l)
);
}
);
width = 476;
}
);
metricLeft = "=H/2";
metricRight = H;
},
{
glyphname = Y.002;
lastChange = "2024-11-27 14:06:55 +0000";
layers = (
{
anchors = (
{
name = bottom;
pos = (243,0);
},
{
name = top;
pos = (243,700);
},
{
name = topleft;
pos = (20,700);
}
);
layerId = m01;
shapes = (
{
closed = 1;
nodes = (
(230,700,l),
(70,700,l),
(70,0,l),
(230,0,l)
);
},
{
closed = 1;
nodes = (
(440,675,l),
(394,700,l),
(169,256,l),
(226,256,l)
);
}
);
width = 475;
},
{
anchors = (
{
name = bottom;
pos = (243,0);
},
{
name = top;
pos = (243,700);
},
{
name = topleft;
pos = (20,700);
}
);
layerId = m002;
shapes = (
{
closed = 1;
nodes = (
(230,700,l),
(70,700,l),
(70,0,l),
(230,0,l)
);
},
{
closed = 1;
nodes = (
(440,675,l),
(394,700,l),
(169,256,l),
(226,256,l)
);
}
);
width = 475;
}
);
metricLeft = H;
metricRight = "=H/2";
},
{
glyphname = a;
lastChange = "2024-11-27 14:08:42 +0000";
layers = (
{
anchors = (
{
name = bottom;
pos = (186,0);
},
{
name = ogonek;
pos = (378,10);
},
{
name = top;
pos = (186,400);
}
);
layerId = m01;
shapes = (
{
closed = 1;
nodes = (
(345,400,l),
(345,0,l),
(35,0,l),
(35,235,l),
(185,235,l),
(185,400,l)
);
},
{
closed = 1;
nodes = (
(95,60,l),
(185,60,l),
(185,175,l),
(95,175,l)
);
},
{
closed = 1;
nodes = (
(185,340,l),
(35,340,l),
(35,400,l),
(185,400,l)
);
}
);
width = 415;
},
{
layerId = "B89D507F-2966-4FA6-B71C-9BE74F77134D";
width = 600;
},
{
anchors = (
{
name = bottom;
pos = (138,0);
},
{
name = ogonek;
pos = (278,10);
},
{
name = top;
pos = (134,400);
}
);
layerId = m002;
shapes = (
{
closed = 1;
nodes = (
(245,400,l),
(245,0,l),
(35,0,l),
(35,235,l),
(185,235,l),
(185,400,l)
);
},
{
closed = 1;
nodes = (
(95,60,l),
(185,60,l),
(185,175,l),
(95,175,l)
);
},
{
closed = 1;
nodes = (
(185,340,l),
(35,340,l),
(35,400,l),
(185,400,l)
);
}
);
width = 315;
}
);
metricLeft = "=H/2";
metricRight = H;
unicode = 97;
},
{
glyphname = b;
lastChange = "2024-11-27 14:08:56 +0000";
layers = (
{
layerId = m01;
shapes = (
{
closed = 1;
nodes = (
(70,0,l),
(70,700,l),
(130,700,l),
(130,400,l),
(390,400,l),
(390,0,l)
);
},
{
closed = 1;
nodes = (
(230,60,l),
(230,340,l),
(130,340,l),
(130,60,l)
);
}
);
width = 460;
},
{
layerId = m002;
shapes = (
{
closed = 1;
nodes = (
(70,0,l),
(70,700,l),
(130,700,l),
(130,400,l),
(290,400,l),
(290,0,l)
);
},
{
closed = 1;
nodes = (
(230,60,l),
(230,340,l),
(130,340,l),
(130,60,l)
);
}
);
width = 360;
}
);
metricLeft = H;
metricRight = H;
unicode = 98;
},
{
glyphname = c;
lastChange = "2024-11-27 14:09:41 +0000";
layers = (
{
anchors = (
{
name = bottom;
pos = (229,0);
},
{
name = top;
pos = (229,400);
}
);
layerId = m01;
shapes = (
{
closed = 1;
nodes = (
(230,60,l),
(230,340,l),
(380,340,l),
(380,400,l),
(70,400,l),
(70,0,l),
(380,0,l),
(380,60,l)
);
}
);
width = 415;
},
{
anchors = (
{
name = bottom;
pos = (183,0);
},
{
name = top;
pos = (181,400);
}
);
layerId = m002;
shapes = (
{
closed = 1;
nodes = (
(140,60,l),
(140,340,l),
(290,340,l),
(290,400,l),
(70,400,l),
(70,0,l),
(290,0,l),
(290,60,l)
);
}
);
width = 415;
}
);
metricLeft = H;
metricRight = "=H/2";
unicode = 99;
},
{
glyphname = d;
lastChange = "2024-11-27 14:10:17 +0000";
layers = (
{
layerId = m01;
shapes = (
{
closed = 1;
nodes = (
(70,400,l),
(320,400,l),
(320,700,l),
(380,700,l),
(380,0,l),
(70,0,l)
);
},
{
closed = 1;
nodes = (
(320,340,l),
(220,340,l),
(220,60,l),
(320,60,l)
);
}
);
width = 450;
},
{
layerId = m002;
shapes = (
{
closed = 1;
nodes = (
(70,400,l),
(230,400,l),
(230,700,l),
(290,700,l),
(290,0,l),
(70,0,l)
);
},
{
closed = 1;
nodes = (
(230,340,l),
(130,340,l),
(130,60,l),
(230,60,l)
);
}
);
width = 360;
}
);
metricLeft = H;
metricRight = H;
unicode = 100;
},
{
glyphname = dcaron;
lastChange = "2024-11-27 14:06:55 +0000";
layers = (
{
layerId = m01;
shapes = (
{
ref = d;
},
{
closed = 1;
nodes = (
(503,539,l),
(503,699,l),
(443,699,l),
(443,539,l)
);
}
);
width = 500;
},
{
layerId = m002;
shapes = (
{
ref = d;
},
{
closed = 1;
nodes = (
(503,539,l),
(503,699,l),
(443,699,l),
(443,539,l)
);
}
);
width = 500;
}
);
unicode = 271;
},
{
glyphname = e;
lastChange = "2024-11-27 14:10:36 +0000";
layers = (
{
anchors = (
{
name = bottom;
pos = (203,0);
},
{
name = ogonek;
pos = (382,10);
},
{
name = top;
pos = (220,400);
}
);
layerId = m01;
shapes = (
{
closed = 1;
nodes = (
(220,60,l),
(380,60,l),
(380,0,l),
(70,0,l),
(70,400,l),
(380,400,l),
(380,180,l),
(220,180,l)
);
},
{
closed = 1;
nodes = (
(220,240,l),
(320,240,l),
(320,340,l),
(220,340,l)
);
}
);
width = 415;
},
{
anchors = (
{
name = bottom;
pos = (174,0);
},
{
name = ogonek;
pos = (382,10);
},
{
name = top;
pos = (183,400);
}
);
layerId = m002;
shapes = (
{
closed = 1;
nodes = (
(130,60,l),
(290,60,l),
(290,0,l),
(70,0,l),
(70,400,l),
(290,400,l),
(290,180,l),
(130,180,l)
);
},
{
closed = 1;
nodes = (
(130,240,l),
(230,240,l),
(230,340,l),
(130,340,l)
);
}
);
width = 325;
}
);
metricLeft = H;
metricRight = "=H/2";
unicode = 101;
},
{
glyphname = f;
lastChange = "2024-11-27 14:06:55 +0000";
layers = (
{
layerId = m01;
shapes = (
{
closed = 1;
nodes = (
(70,0,l),
(130,0,l),
(130,700,l),
(70,700,l)
);
},
{
closed = 1;
nodes = (
(70,640,l),
(230,640,l),
(230,700,l),
(70,700,l)
);
},
{
closed = 1;
nodes = (
(70,339,l),
(230,339,l),
(230,399,l),
(70,399,l)
);
}
);
width = 265;
},
{
layerId = m002;
shapes = (
{
closed = 1;
nodes = (
(70,0,l),
(130,0,l),
(130,700,l),
(70,700,l)
);
},
{
closed = 1;
nodes = (
(70,640,l),
(230,640,l),
(230,700,l),
(70,700,l)
);
},
{
closed = 1;
nodes = (
(70,339,l),
(230,339,l),
(230,399,l),
(70,399,l)
);
}
);
width = 265;
}
);
metricLeft = H;
metricRight = "=H/2";
unicode = 102;
},
{
glyphname = g;
lastChange = "2024-11-27 14:10:54 +0000";
layers = (
{
layerId = m01;
shapes = (
{
closed = 1;
nodes = (
(380,-200,l),
(380,400,l),
(70,400,l),
(70,0,l),
(230,0,l),
(230,-200,l)
);
},
{
closed = 1;
nodes = (
(130,340,l),
(230,340,l),
(230,60,l),
(130,60,l)
);
},
{
closed = 1;
nodes = (
(124,-200,l),
(230,-200,l),
(230,-140,l),
(124,-140,l)
);
}
);
width = 450;
},
{
layerId = m002;
shapes = (
{
closed = 1;
nodes = (
(290,-200,l),
(290,400,l),
(70,400,l),
(70,0,l),
(230,0,l),
(230,-200,l)
);
},
{
closed = 1;
nodes = (
(130,340,l),
(230,340,l),
(230,60,l),
(130,60,l)
);
},
{
closed = 1;
nodes = (
(124,-200,l),
(230,-200,l),
(230,-140,l),
(124,-140,l)
);
}
);
width = 360;
}
);
metricLeft = H;
metricRight = H;
unicode = 103;
},
{
glyphname = h;
lastChange = "2024-11-27 14:11:05 +0000";
layers = (
{
layerId = m01;
shapes = (
{
closed = 1;
nodes = (
(70,0,l),
(70,700,l),
(128,700,l),
(128,399,l),
(413,400,l),
(413,0,l),
(242,0,l),
(242,342,l),
(128,342,l),
(128,0,l)
);
}
);
width = 483;
},
{
layerId = m002;
shapes = (
{
closed = 1;
nodes = (
(70,0,l),
(70,700,l),
(128,700,l),
(128,399,l),
(293,400,l),
(293,0,l),
(242,0,l),
(242,342,l),
(128,342,l),
(128,0,l)
);
}
);
width = 363;
}
);
metricLeft = H;
metricRight = H;
unicode = 104;
},
{
glyphname = i;
lastChange = "2024-11-27 14:06:55 +0000";
layers = (
{
layerId = m01;
shapes = (
{
closed = 1;
nodes = (
(80,0,l),
(140,0,l),
(140,400,l),
(80,400,l)
);
},
{
closed = 1;
nodes = (
(146,488,l),
(146,564,l),
(70,564,l),
(70,488,l)
);
}
);
width = 216;
},
{
layerId = m002;
shapes = (
{
closed = 1;
nodes = (
(80,0,l),
(140,0,l),
(140,400,l),
(80,400,l)
);
},
{
closed = 1;
nodes = (
(146,488,l),
(146,564,l),
(70,564,l),
(70,488,l)
);
}
);
width = 216;
}
);
metricLeft = H;
metricRight = H;
unicode = 105;
},
{
glyphname = idotless;
lastChange = "2024-11-27 14:06:55 +0000";
layers = (
{
anchors = (
{
name = bottom;
pos = (98,0);
},
{
name = ogonek;
pos = (130,0);
},
{
name = top;
pos = (98,370);
}
);
layerId = m01;
shapes = (
{
closed = 1;
nodes = (
(70,0,l),
(130,0,l),
(130,400,l),
(70,400,l)
);
}
);
width = 200;
},
{
anchors = (
{
name = bottom;
pos = (98,0);
},
{
name = ogonek;
pos = (130,0);
},
{
name = top;
pos = (98,370);
}
);
layerId = m002;
shapes = (
{
closed = 1;
nodes = (
(70,0,l),
(130,0,l),
(130,400,l),
(70,400,l)
);
}
);
width = 200;
}
);
metricLeft = H;
metricRight = H;
unicode = 305;
},
{
glyphname = iacute;
lastChange = "2024-11-27 14:06:55 +0000";
layers = (
{
layerId = m01;
shapes = (
{
closed = 1;
nodes = (
(72,0,l),
(132,0,l),
(132,400,l),
(72,400,l)
);
},
{
pos = (-20,0);
ref = acute;
}
);
width = 202;
},
{
layerId = m002;
shapes = (
{
closed = 1;
nodes = (
(72,0,l),
(132,0,l),
(132,400,l),
(72,400,l)
);
},
{
pos = (-20,0);
ref = acute;
}
);
width = 202;
}
);
metricLeft = H;
metricRight = H;
unicode = 237;
},
{
glyphname = j;
lastChange = "2024-11-27 14:06:55 +0000";
layers = (
{
layerId = m01;
shapes = (
{
closed = 1;
nodes = (
(193,-200,l),
(35,-200,l),
(35,-143,l),
(136,-143,l),
(135,400,l),
(193,400,l)
);
},
{
closed = 1;
nodes = (
(201,488,l),
(201,564,l),
(125,564,l),
(125,488,l)
);
}
);
width = 271;
},
{
layerId = m002;
shapes = (
{
closed = 1;
nodes = (
(193,-200,l),
(35,-200,l),
(35,-143,l),
(136,-143,l),
(135,400,l),
(193,400,l)
);
},
{
closed = 1;
nodes = (
(201,488,l),
(201,564,l),
(125,564,l),
(125,488,l)
);
}
);
width = 271;
}
);
metricLeft = "=H/2";
metricRight = H;
unicode = 106;
},
{
glyphname = jdotless;
lastChange = "2024-11-27 14:06:55 +0000";
layers = (
{
layerId = m01;
shapes = (
{
closed = 1;
nodes = (
(194,-200,l),
(36,-200,l),
(36,-143,l),
(137,-143,l),
(136,400,l),
(194,400,l)
);
}
);
width = 280;
},
{
layerId = m002;
shapes = (
{
closed = 1;
nodes = (
(194,-200,l),
(36,-200,l),
(36,-143,l),
(137,-143,l),
(136,400,l),
(194,400,l)
);
}
);
width = 280;
}
);
unicode = 567;
},
{
glyphname = k;
lastChange = "2024-11-27 14:11:39 +0000";
layers = (
{
layerId = m01;
shapes = (
{
closed = 1;
nodes = (
(70,0,l),
(70,699,l),
(130,699,l),
(130,228,l),
(230,228,l),
(230,399,l),
(380,400,l),
(380,0,l),
(230,0,l),
(230,168,l),
(130,168,l),
(130,0,l)
);
},
{
closed = 1;
nodes = (
(380,168,l),
(380,228,l),
(290,228,l),
(290,168,l)
);
}
);
width = 450;
},
{
layerId = m002;
shapes = (
{
closed = 1;
nodes = (
(70,0,l),
(70,699,l),
(130,699,l),
(130,228,l),
(230,228,l),
(230,399,l),
(290,400,l),
(290,0,l),
(230,0,l),
(230,168,l),
(130,168,l),
(130,0,l)
);
},
{
closed = 1;
nodes = (
(290,168,l),
(290,228,l),
(230,228,l),
(230,168,l)
);
}
);
width = 360;
}
);
metricLeft = H;
metricRight = H;
unicode = 107;
},
{
glyphname = l;
lastChange = "2024-11-27 14:06:55 +0000";
layers = (
{
anchors = (
{
name = bottom;
pos = (100,0);
},
{
name = center;
pos = (100,200);
},
{
name = top;
pos = (100,700);
},
{
name = topright;
pos = (180,800);
}
);
layerId = m01;
shapes = (
{
closed = 1;
nodes = (
(70,0,l),
(130,0,l),
(130,700,l),
(70,700,l)
);
}
);
width = 200;
},
{
anchors = (
{
name = bottom;
pos = (100,0);
},
{
name = center;
pos = (100,200);
},
{
name = top;
pos = (100,700);
},
{
name = topright;
pos = (180,800);
}
);
layerId = m002;
shapes = (
{
closed = 1;
nodes = (
(70,0,l),
(130,0,l),
(130,700,l),
(70,700,l)
);
}
);
width = 200;
}
);
metricLeft = H;
metricRight = H;
unicode = 108;
},
{
glyphname = lcaron;
lastChange = "2024-11-27 14:06:55 +0000";
layers = (
{
layerId = m01;
shapes = (
{
ref = l;
},
{
closed = 1;
nodes = (
(240,541,l),
(240,701,l),
(180,701,l),
(180,541,l)
);
}
);
width = 200;
},
{
layerId = m002;
shapes = (
{
ref = l;
},
{
closed = 1;
nodes = (
(240,541,l),
(240,701,l),
(180,701,l),
(180,541,l)
);
}
);
width = 200;
}
);
unicode = 318;
},
{
glyphname = m;
lastChange = "2024-11-27 14:11:59 +0000";
layers = (
{
layerId = m01;
shapes = (
{
closed = 1;
nodes = (
(290,340,l),
(390,340,l),
(390,0,l),
(540,0,l),
(540,400,l),
(70,400,l),
(70,0,l),
(130,0,l),
(130,340,l),
(230,340,l),
(230,0,l),
(290,0,l)
);
}
);
width = 610;
},
{
layerId = m002;
shapes = (
{
closed = 1;
nodes = (
(290,340,l),
(390,340,l),
(390,0,l),
(450,0,l),
(450,400,l),
(70,400,l),
(70,0,l),
(130,0,l),
(130,340,l),
(230,340,l),
(230,0,l),
(290,0,l)
);
}
);
width = 520;
}
);
metricLeft = H;
metricRight = H;
unicode = 109;
},
{
glyphname = n;
lastChange = "2024-11-27 14:12:21 +0000";
layers = (
{
anchors = (
{
name = bottom;
pos = (244,0);
},
{
name = top;
pos = (244,400);
}
);
layerId = m01;
shapes = (
{
closed = 1;
nodes = (
(130,340,l),
(130,0,l),
(70,0,l),
(70,400,l),
(394,400,l),
(394,0,l),
(244,0,l),
(244,340,l)
);
}
);
width = 464;
},
{
anchors = (
{
name = bottom;
pos = (189,0);
},
{
name = top;
pos = (189,400);
}
);
layerId = m002;
shapes = (
{
closed = 1;
nodes = (
(130,340,l),
(130,0,l),
(70,0,l),
(70,400,l),
(304,400,l),
(304,0,l),
(244,0,l),
(244,340,l)
);
}
);
width = 374;
}
);
metricLeft = H;
metricRight = H;
unicode = 110;
},
{
glyphname = o;
lastChange = "2024-11-27 14:12:39 +0000";
layers = (
{
anchors = (
{
name = bottom;
pos = (225,0);
},
{
name = center;
pos = (225,200);
},
{
name = ogonek;
pos = (445,10);
},
{
name = top;
pos = (225,400);
},
{
name = topright;
pos = (475,400);
}
);
layerId = m01;
shapes = (
{
closed = 1;
nodes = (
(380,0,l),
(380,400,l),
(70,400,l),
(70,0,l)
);
},
{
closed = 1;
nodes = (
(130,340,l),
(230,340,l),
(230,60,l),
(130,60,l)
);
}
);
width = 450;
},
{
anchors = (
{
name = bottom;
pos = (179,0);
},
{
name = center;
pos = (135,200);
},
{
name = ogonek;
pos = (355,10);
},
{
name = top;
pos = (181,400);
},
{
name = topright;
pos = (385,400);
}
);
layerId = m002;
shapes = (
{
closed = 1;
nodes = (
(290,0,l),
(290,400,l),
(70,400,l),
(70,0,l)
);
},
{
closed = 1;
nodes = (
(130,340,l),
(230,340,l),
(230,60,l),
(130,60,l)
);
}
);
width = 360;
}
);
metricLeft = H;
metricRight = H;
unicode = 111;
},
{
glyphname = p;
lastChange = "2024-11-27 14:12:56 +0000";
layers = (
{
layerId = m01;
shapes = (
{
closed = 1;
nodes = (
(130,-200,l),
(130,-1,l),
(380,-1,l),
(380,400,l),
(70,400,l),
(70,-200,l)
);
},
{
closed = 1;
nodes = (
(130,343,l),
(230,343,l),
(230,56,l),
(130,56,l)
);
}
);
width = 450;
},
{
layerId = m002;
shapes = (
{
closed = 1;
nodes = (
(130,-200,l),
(130,-1,l),
(290,-1,l),
(290,400,l),
(70,400,l),
(70,-200,l)
);
},
{
closed = 1;
nodes = (
(130,343,l),
(230,343,l),
(230,56,l),
(130,56,l)
);
}
);
width = 360;
}
);
metricLeft = H;
metricRight = H;
unicode = 112;
},
{
glyphname = q;
lastChange = "2024-11-27 14:13:09 +0000";
layers = (
{
layerId = m01;
shapes = (
{
closed = 1;
nodes = (
(380,400,l),
(70,400,l),
(70,-1,l),
(320,-1,l),
(320,-200,l),
(380,-200,l)
);
},
{
closed = 1;
nodes = (
(220,59,l),
(220,340,l),
(320,340,l),
(320,59,l)
);
}
);
width = 450;
},
{
layerId = m002;
shapes = (
{
closed = 1;
nodes = (
(290,400,l),
(70,400,l),
(70,-1,l),
(230,-1,l),
(230,-200,l),
(290,-200,l)
);
},
{
closed = 1;
nodes = (
(130,59,l),
(130,340,l),
(230,340,l),
(230,59,l)
);
}
);
width = 360;
}
);
metricLeft = H;
metricRight = H;
unicode = 113;
},
{
glyphname = r;
lastChange = "2024-11-27 14:13:36 +0000";
layers = (
{
anchors = (
{
name = bottom;
pos = (189,0);
},
{
name = top;
pos = (189,400);
}
);
layerId = m01;
shapes = (
{
closed = 1;
nodes = (
(320,340,l),
(220,340,l),
(220,0,l),
(70,0,l),
(70,400,l),
(320,400,l)
);
}
);
width = 355;
},
{
anchors = (
{
name = bottom;
pos = (98,0);
},
{
name = top;
pos = (153,400);
}
);
layerId = m002;
shapes = (
{
closed = 1;
nodes = (
(230,340,l),
(130,340,l),
(130,0,l),
(70,0,l),
(70,400,l),
(230,400,l)
);
}
);
width = 265;
}
);
metricLeft = H;
metricRight = "=H/2";
unicode = 114;
},
{
glyphname = s;
lastChange = "2024-11-27 14:14:18 +0000";
layers = (
{
anchors = (
{
name = bottom;
pos = (209,0);
},
{
name = top;
pos = (225,400);
}
);
layerId = m01;
shapes = (
{
closed = 1;
nodes = (
(295,0,l),
(295,400,l),
(135,400,l),
(135,0,l)
);
},
{
closed = 1;
nodes = (
(135,0,l),
(135,60,l),
(35,60,l),
(35,0,l)
);
},
{
closed = 1;
nodes = (
(395,340,l),
(395,400,l),
(295,400,l),
(295,340,l)
);
}
);
width = 430;
},
{
anchors = (
{
name = bottom;
pos = (121,0);
},
{
name = top;
pos = (211,400);
}
);
layerId = m002;
shapes = (
{
closed = 1;
nodes = (
(195,0,l),
(195,400,l),
(135,400,l),
(135,0,l)
);
},
{
closed = 1;
nodes = (
(135,0,l),
(135,60,l),
(35,60,l),
(35,0,l)
);
},
{
closed = 1;
nodes = (
(295,340,l),
(295,400,l),
(195,400,l),
(195,340,l)
);
}
);
width = 330;
}
);
metricLeft = "=H/2";
metricRight = "=H/2";
unicode = 115;
},
{
glyphname = t;
lastChange = "2024-11-27 14:06:55 +0000";
layers = (
{
layerId = m01;
shapes = (
{
closed = 1;
nodes = (
(95,340,l),
(35,340,l),
(35,400,l),
(95,400,l),
(95,700,l),
(155,700,l),
(155,400,l),
(275,400,l),
(275,340,l),
(155,340,l),
(155,0,l),
(95,0,l)
);
}
);
width = 310;
},
{
layerId = m002;
shapes = (
{
closed = 1;
nodes = (
(95,340,l),
(35,340,l),
(35,400,l),
(95,400,l),
(95,700,l),
(155,700,l),
(155,400,l),
(275,400,l),
(275,340,l),
(155,340,l),
(155,0,l),
(95,0,l)
);
}
);
width = 310;
}
);
metricLeft = "=H/2";
metricRight = "=H/2";
unicode = 116;
},
{
glyphname = tcaron;
lastChange = "2024-11-27 14:06:55 +0000";
layers = (
{
layerId = m01;
shapes = (
{
ref = t;
},
{
closed = 1;
nodes = (
(291,539,l),
(291,699,l),
(231,699,l),
(231,539,l)
);
}
);
width = 327;
},
{
layerId = m002;
shapes = (
{
ref = t;
},
{
closed = 1;
nodes = (
(291,539,l),
(291,699,l),
(231,699,l),
(231,539,l)
);
}
);
width = 327;
}
);
unicode = 357;
},
{
glyphname = u;
lastChange = "2024-11-27 14:14:41 +0000";
layers = (
{
anchors = (
{
name = bottom;
pos = (225,0);
},
{
name = ogonek;
pos = (408,10);
},
{
name = top;
pos = (153,400);
},
{
name = topright;
pos = (438,400);
}
);
layerId = m01;
shapes = (
{
closed = 1;
nodes = (
(130,57,l),
(130,400,l),
(70,400,l),
(70,0,l),
(380,0,l),
(380,400,l),
(230,400,l),
(230,57,l)
);
}
);
width = 450;
},
{
anchors = (
{
name = bottom;
pos = (225,0);
},
{
name = ogonek;
pos = (307,10);
},
{
name = top;
pos = (153,400);
},
{
name = topright;
pos = (310,400);
}
);
layerId = m002;
shapes = (
{
closed = 1;
nodes = (
(130,57,l),
(130,400,l),
(70,400,l),
(70,0,l),
(290,0,l),
(290,400,l),
(230,400,l),
(230,57,l)
);
}
);
width = 360;
}
);
metricLeft = H;
metricRight = H;
unicode = 117;
},
{
glyphname = v;
lastChange = "2024-11-27 14:15:15 +0000";
layers = (
{
layerId = m01;
shapes = (
{
closed = 1;
nodes = (
(398,0,l),
(398,400,l),
(238,400,l),
(238,0,l)
);
},
{
closed = 1;
nodes = (
(305,0,l),
(102,400,l),
(35,400,l),
(238,0,l)
);
}
);
width = 468;
},
{
layerId = m002;
shapes = (
{
closed = 1;
nodes = (
(298,0,l),
(298,400,l),
(238,400,l),
(238,0,l)
);
},
{
closed = 1;
nodes = (
(298,14,l),
(102,400,l),
(35,400,l),
(238,0,l)
);
}
);
width = 368;
}
);
metricLeft = "=H/2";
metricRight = H;
unicode = 118;
},
{
glyphname = w;
lastChange = "2024-11-27 14:15:42 +0000";
layers = (
{
layerId = m01;
shapes = (
{
closed = 1;
nodes = (
(305,0,l),
(305,400,l),
(245,400,l),
(245,0,l)
);
},
{
closed = 1;
nodes = (
(305,0,l),
(102,400,l),
(35,400,l),
(238,0,l)
);
},
{
closed = 1;
nodes = (
(608,0,l),
(608,400,l),
(448,400,l),
(448,0,l)
);
},
{
closed = 1;
nodes = (
(515,0,l),
(312,400,l),
(245,400,l),
(448,0,l)
);
}
);
width = 678;
},
{
layerId = m002;
shapes = (
{
closed = 1;
nodes = (
(305,0,l),
(305,400,l),
(245,400,l),
(245,0,l)
);
},
{
closed = 1;
nodes = (
(305,0,l),
(102,400,l),
(35,400,l),
(238,0,l)
);
},
{
closed = 1;
nodes = (
(508,0,l),
(508,400,l),
(448,400,l),
(448,0,l)
);
},
{
closed = 1;
nodes = (
(508,14,l),
(312,400,l),
(245,400,l),
(448,0,l)
);
}
);
width = 578;
}
);
metricLeft = "=H/2";
metricRight = H;
unicode = 119;
},
{
glyphname = x;
lastChange = "2024-11-27 14:16:30 +0000";
layers = (
{
layerId = m01;
shapes = (
{
closed = 1;
nodes = (
(322,400,l),
(162,400,l),
(162,0,l),
(322,0,l)
);
},
{
closed = 1;
nodes = (
(220,173,l),
(102,400,l),
(35,400,l),
(164,148,l)
);
},
{
closed = 1;
nodes = (
(265,217,l),
(377,0,l),
(444,0,l),
(321,242,l)
);
}
);
width = 479;
},
{
layerId = m002;
shapes = (
{
closed = 1;
nodes = (
(222,400,l),
(162,400,l),
(162,0,l),
(222,0,l)
);
},
{
closed = 1;
nodes = (
(220,173,l),
(102,400,l),
(35,400,l),
(164,148,l)
);
},
{
closed = 1;
nodes = (
(165,217,l),
(277,0,l),
(344,0,l),
(221,242,l)
);
}
);
width = 379;
}
);
metricLeft = "=H/2";
metricRight = "=H/2";
unicode = 120;
},
{
glyphname = y;
lastChange = "2024-11-27 14:16:04 +0000";
layers = (
{
anchors = (
{
name = bottom;
pos = (250,0);
},
{
name = top;
pos = (250,400);
}
);
layerId = m01;
shapes = (
{
closed = 1;
nodes = (
(420,-200,l),
(420,400,l),
(260,400,l),
(260,-200,l)
);
},
{
closed = 1;
nodes = (
(316,-19,l),
(102,400,l),
(35,400,l),
(260,-44,l)
);
},
{
closed = 1;
nodes = (
(140,-200,l),
(260,-200,l),
(260,-140,l),
(140,-140,l)
);
}
);
width = 490;
},
{
anchors = (
{
name = bottom;
pos = (250,0);
},
{
name = top;
pos = (187,400);
}
);
layerId = m002;
shapes = (
{
closed = 1;
nodes = (
(320,-200,l),
(320,400,l),
(260,400,l),
(260,-200,l)
);
},
{
closed = 1;
nodes = (
(316,-19,l),
(102,400,l),
(35,400,l),
(260,-44,l)
);
},
{
closed = 1;
nodes = (
(140,-200,l),
(260,-200,l),
(260,-140,l),
(140,-140,l)
);
}
);
width = 390;
}
);
metricLeft = "=H/2";
metricRight = H;
unicode = 121;
},
{
glyphname = z;
lastChange = "2024-11-27 14:16:58 +0000";
layers = (
{
anchors = (
{
name = bottom;
pos = (205,0);
},
{
name = center;
pos = (205,200);
},
{
name = top;
pos = (203,400);
}
);
layerId = m01;
shapes = (
{
closed = 1;
nodes = (
(135,0,l),
(295,0,l),
(295,400,l),
(135,400,l)
);
},
{
closed = 1;
nodes = (
(35,340,l),
(135,340,l),
(135,400,l),
(35,400,l)
);
},
{
closed = 1;
nodes = (
(295,0,l),
(395,0,l),
(395,60,l),
(295,60,l)
);
}
);
width = 430;
},
{
anchors = (
{
name = bottom;
pos = (207,0);
},
{
name = center;
pos = (165,200);
},
{
name = top;
pos = (123,400);
}
);
layerId = m002;
shapes = (
{
closed = 1;
nodes = (
(135,0,l),
(195,0,l),
(195,400,l),
(135,400,l)
);
},
{
closed = 1;
nodes = (
(35,340,l),
(135,340,l),
(135,400,l),
(35,400,l)
);
},
{
closed = 1;
nodes = (
(195,0,l),
(295,0,l),
(295,60,l),
(195,60,l)
);
}
);
width = 330;
}
);
metricLeft = "=H/2";
metricRight = "=H/2";
unicode = 122;
},
{
glyphname = g.001;
lastChange = "2024-11-27 14:17:17 +0000";
layers = (
{
layerId = m01;
shapes = (
{
closed = 1;
nodes = (
(377,-200,l),
(377,400,l),
(35,400,l),
(35,0,l),
(206,0,l),
(206,-143,l),
(35,-143,l),
(35,-200,l)
);
},
{
closed = 1;
nodes = (
(92,343,l),
(206,343,l),
(206,57,l),
(92,57,l)
);
}
);
width = 447;
},
{
layerId = m002;
shapes = (
{
closed = 1;
nodes = (
(267,-200,l),
(267,400,l),
(35,400,l),
(35,0,l),
(206,0,l),
(206,-143,l),
(35,-143,l),
(35,-200,l)
);
},
{
closed = 1;
nodes = (
(92,343,l),
(206,343,l),
(206,57,l),
(92,57,l)
);
}
);
width = 337;
}
);
metricLeft = "=H/2";
metricRight = H;
},
{
glyphname = q.001;
lastChange = "2024-11-27 14:17:28 +0000";
layers = (
{
layerId = m01;
shapes = (
{
closed = 1;
nodes = (
(412,400,l),
(70,400,l),
(70,-1,l),
(355,-1,l),
(355,-200,l),
(412,-200,l)
);
},
{
closed = 1;
nodes = (
(241,56,l),
(241,343,l),
(355,343,l),
(355,56,l)
);
}
);
width = 482;
},
{
layerId = m002;
shapes = (
{
closed = 1;
nodes = (
(301,400,l),
(70,400,l),
(70,-1,l),
(244,-1,l),
(244,-200,l),
(301,-200,l)
);
},
{
closed = 1;
nodes = (
(130,56,l),
(130,343,l),
(244,343,l),
(244,56,l)
);
}
);
width = 371;
}
);
metricLeft = H;
metricRight = H;
},
{
glyphname = v.001;
lastChange = "2024-11-27 14:06:55 +0000";
layers = (
{
layerId = m01;
shapes = (
{
closed = 1;
nodes = (
(293,399,l),
(293,57,l),
(208,57,l),
(208,400,l),
(151,400,l),
(151,0,l),
(350,0,l),
(350,400,l)
);
}
);
width = 500;
},
{
layerId = m002;
shapes = (
{
closed = 1;
nodes = (
(293,399,l),
(293,57,l),
(208,57,l),
(208,400,l),
(151,400,l),
(151,0,l),
(350,0,l),
(350,400,l)
);
}
);
width = 500;
}
);
},
{
glyphname = w.001;
lastChange = "2024-11-27 14:06:55 +0000";
layers = (
{
layerId = m01;
shapes = (
{
closed = 1;
nodes = (
(194,399,l),
(194,57,l),
(109,57,l),
(109,400,l),
(52,400,l),
(52,0,l),
(508,0,l),
(508,400,l),
(337,400,l),
(337,57,l),
(251,57,l),
(251,400,l)
);
}
);
width = 560;
},
{
layerId = m002;
shapes = (
{
closed = 1;
nodes = (
(194,399,l),
(194,57,l),
(109,57,l),
(109,400,l),
(52,400,l),
(52,0,l),
(508,0,l),
(508,400,l),
(337,400,l),
(337,57,l),
(251,57,l),
(251,400,l)
);
}
);
width = 560;
}
);
},
{
glyphname = w.002;
lastChange = "2024-11-27 14:06:55 +0000";
layers = (
{
layerId = m01;
shapes = (
{
closed = 1;
nodes = (
(398,0,l),
(398,400,l),
(238,400,l),
(238,0,l)
);
},
{
closed = 1;
nodes = (
(295,0,l),
(92,400,l),
(35,400,l),
(238,0,l)
);
},
{
closed = 1;
nodes = (
(704,0,l),
(704,400,l),
(544,400,l),
(544,0,l)
);
},
{
closed = 1;
nodes = (
(601,0,l),
(398,400,l),
(341,400,l),
(544,0,l)
);
}
);
width = 774;
},
{
layerId = m002;
shapes = (
{
closed = 1;
nodes = (
(398,0,l),
(398,400,l),
(238,400,l),
(238,0,l)
);
},
{
closed = 1;
nodes = (
(295,0,l),
(92,400,l),
(35,400,l),
(238,0,l)
);
},
{
closed = 1;
nodes = (
(704,0,l),
(704,400,l),
(544,400,l),
(544,0,l)
);
},
{
closed = 1;
nodes = (
(601,0,l),
(398,400,l),
(341,400,l),
(544,0,l)
);
}
);
width = 774;
}
);
metricLeft = "=H/2";
metricRight = H;
},
{
glyphname = x.001;
lastChange = "2024-11-27 14:06:55 +0000";
layers = (
{
layerId = m01;
shapes = (
{
closed = 1;
nodes = (
(339,400,l),
(168,400,l),
(168,0,l),
(339,0,l)
);
},
{
closed = 1;
nodes = (
(419,172,l),
(476,172,l),
(476,400,l),
(419,400,l)
);
},
{
closed = 1;
nodes = (
(31,172,l),
(476,172,l),
(476,229,l),
(31,229,l)
);
},
{
closed = 1;
nodes = (
(31,0,l),
(88,0,l),
(88,229,l),
(31,229,l)
);
}
);
width = 500;
},
{
layerId = m002;
shapes = (
{
closed = 1;
nodes = (
(339,400,l),
(168,400,l),
(168,0,l),
(339,0,l)
);
},
{
closed = 1;
nodes = (
(419,172,l),
(476,172,l),
(476,400,l),
(419,400,l)
);
},
{
closed = 1;
nodes = (
(31,172,l),
(476,172,l),
(476,229,l),
(31,229,l)
);
},
{
closed = 1;
nodes = (
(31,0,l),
(88,0,l),
(88,229,l),
(31,229,l)
);
}
);
width = 500;
}
);
},
{
glyphname = x.002;
lastChange = "2024-11-27 14:06:55 +0000";
layers = (
{
layerId = m01;
shapes = (
{
closed = 1;
nodes = (
(370,400,l),
(210,400,l),
(210,0,l),
(370,0,l)
);
},
{
closed = 1;
nodes = (
(35,400,l),
(458,0,l),
(545,0,l),
(121,400,l)
);
}
);
width = 580;
},
{
layerId = m002;
shapes = (
{
closed = 1;
nodes = (
(370,400,l),
(210,400,l),
(210,0,l),
(370,0,l)
);
},
{
closed = 1;
nodes = (
(35,400,l),
(458,0,l),
(545,0,l),
(121,400,l)
);
}
);
width = 580;
}
);
metricLeft = "=H/2";
metricRight = "=H/2";
},
{
glyphname = y.001;
lastChange = "2024-11-27 14:06:55 +0000";
layers = (
{
layerId = m01;
shapes = (
{
closed = 1;
nodes = (
(422,-200,l),
(79,-200,l),
(79,-143,l),
(250,-143,l),
(250,0,l),
(79,0,l),
(79,400,l),
(136,400,l),
(136,57,l),
(250,57,l),
(250,400,l),
(422,400,l)
);
}
);
width = 500;
},
{
layerId = m002;
shapes = (
{
closed = 1;
nodes = (
(422,-200,l),
(79,-200,l),
(79,-143,l),
(250,-143,l),
(250,0,l),
(79,0,l),
(79,400,l),
(136,400,l),
(136,57,l),
(250,57,l),
(250,400,l),
(422,400,l)
);
}
);
width = 500;
}
);
},
{
glyphname = zero;
lastChange = "2024-11-27 14:20:02 +0000";
layers = (
{
layerId = m01;
shapes = (
{
closed = 1;
nodes = (
(290,0,l),
(450,0,l),
(450,700,l),
(290,700,l)
);
},
{
closed = 1;
nodes = (
(70,0,l),
(230,0,l),
(230,700,l),
(70,700,l)
);
},
{
closed = 1;
nodes = (
(347,700,l),
(167,700,l),
(167,640,l),
(347,640,l)
);
},
{
closed = 1;
nodes = (
(347,60,l),
(167,60,l),
(167,0,l),
(347,0,l)
);
}
);
width = 520;
},
{
layerId = m002;
shapes = (
{
closed = 1;
nodes = (
(190,0,l),
(250,0,l),
(250,700,l),
(190,700,l)
);
},
{
closed = 1;
nodes = (
(70,0,l),
(130,0,l),
(130,700,l),
(70,700,l)
);
},
{
closed = 1;
nodes = (
(250,700,l),
(70,700,l),
(70,640,l),
(250,640,l)
);
},
{
closed = 1;
nodes = (
(250,60,l),
(70,60,l),
(70,0,l),
(250,0,l)
);
}
);
width = 320;
}
);
metricLeft = H;
metricRight = H;
unicode = 48;
},
{
glyphname = one;
lastChange = "2024-11-27 14:20:18 +0000";
layers = (
{
layerId = m01;
shapes = (
{
closed = 1;
nodes = (
(295,1,l),
(295,700,l),
(135,700,l),
(135,1,l)
);
},
{
closed = 1;
nodes = (
(135,640,l),
(135,700,l),
(35,700,l),
(35,640,l)
);
}
);
width = 365;
},
{
layerId = m002;
shapes = (
{
closed = 1;
nodes = (
(195,1,l),
(195,700,l),
(135,700,l),
(135,1,l)
);
},
{
closed = 1;
nodes = (
(135,640,l),
(135,700,l),
(35,700,l),
(35,640,l)
);
}
);
width = 265;
}
);
metricLeft = "=H/2";
metricRight = H;
unicode = 49;
},
{
glyphname = two;
lastChange = "2024-11-27 14:20:31 +0000";
layers = (
{
layerId = m01;
shapes = (
{
closed = 1;
nodes = (
(315,0,l),
(315,700,l),
(155,700,l),
(155,0,l)
);
},
{
closed = 1;
nodes = (
(465,0,l),
(465,60,l),
(315,60,l),
(315,0,l)
);
},
{
closed = 1;
nodes = (
(95,540,l),
(95,640,l),
(35,640,l),
(35,540,l)
);
},
{
closed = 1;
nodes = (
(155,640,l),
(155,700,l),
(35,700,l),
(35,640,l)
);
}
);
width = 500;
},
{
layerId = m002;
shapes = (
{
closed = 1;
nodes = (
(215,0,l),
(215,700,l),
(155,700,l),
(155,0,l)
);
},
{
closed = 1;
nodes = (
(365,0,l),
(365,60,l),
(215,60,l),
(215,0,l)
);
},
{
closed = 1;
nodes = (
(95,540,l),
(95,640,l),
(35,640,l),
(35,540,l)
);
},
{
closed = 1;
nodes = (
(155,640,l),
(155,700,l),
(35,700,l),
(35,640,l)
);
}
);
width = 400;
}
);
metricLeft = "=H/2";
metricRight = "=H/2";
unicode = 50;
},
{
glyphname = three;
lastChange = "2024-11-27 14:20:42 +0000";
layers = (
{
layerId = m01;
shapes = (
{
closed = 1;
nodes = (
(315,0,l),
(315,699,l),
(155,700,l),
(155,380,l),
(89,380,l),
(89,320,l),
(155,320,l),
(155,0,l)
);
},
{
closed = 1;
nodes = (
(185,0,l),
(185,60,l),
(35,60,l),
(35,0,l)
);
},
{
closed = 1;
nodes = (
(95,60,l),
(95,160,l),
(35,160,l),
(35,60,l)
);
},
{
closed = 1;
nodes = (
(95,540,l),
(95,640,l),
(35,640,l),
(35,540,l)
);
},
{
closed = 1;
nodes = (
(185,640,l),
(185,700,l),
(35,700,l),
(35,640,l)
);
}
);
width = 385;
},
{
layerId = m002;
shapes = (
{
closed = 1;
nodes = (
(215,0,l),
(215,699,l),
(155,700,l),
(155,380,l),
(89,380,l),
(89,320,l),
(155,320,l),
(155,0,l)
);
},
{
closed = 1;
nodes = (
(185,0,l),
(185,60,l),
(35,60,l),
(35,0,l)
);
},
{
closed = 1;
nodes = (
(95,60,l),
(95,160,l),
(35,160,l),
(35,60,l)
);
},
{
closed = 1;
nodes = (
(95,540,l),
(95,640,l),
(35,640,l),
(35,540,l)
);
},
{
closed = 1;
nodes = (
(185,640,l),
(185,700,l),
(35,700,l),
(35,640,l)
);
}
);
width = 285;
}
);
metricLeft = "=H/2";
metricRight = H;
unicode = 51;
},
{
glyphname = four;
lastChange = "2024-11-27 14:20:58 +0000";
layers = (
{
layerId = m01;
shapes = (
{
closed = 1;
nodes = (
(315,0,l),
(315,700,l),
(155,700,l),
(155,0,l)
);
},
{
closed = 1;
nodes = (
(375,320,l),
(375,380,l),
(95,380,l),
(95,320,l)
);
},
{
closed = 1;
nodes = (
(95,320,l),
(95,700,l),
(35,700,l),
(35,320,l)
);
}
);
width = 398;
},
{
layerId = m002;
shapes = (
{
closed = 1;
nodes = (
(215,0,l),
(215,700,l),
(155,700,l),
(155,0,l)
);
},
{
closed = 1;
nodes = (
(275,320,l),
(275,380,l),
(95,380,l),
(95,320,l)
);
},
{
closed = 1;
nodes = (
(95,320,l),
(95,700,l),
(35,700,l),
(35,320,l)
);
}
);
width = 298;
}
);
metricLeft = "=H/2";
metricRight = "=H/3";
unicode = 52;
},
{
glyphname = five;
lastChange = "2024-11-27 14:21:10 +0000";
layers = (
{
layerId = m01;
shapes = (
{
closed = 1;
nodes = (
(315,0,l),
(315,700,l),
(155,700,l),
(155,0,l)
);
},
{
closed = 1;
nodes = (
(185,0,l),
(185,60,l),
(35,60,l),
(35,0,l)
);
},
{
closed = 1;
nodes = (
(95,60,l),
(95,160,l),
(35,160,l),
(35,60,l)
);
},
{
closed = 1;
nodes = (
(435,640,l),
(375,640,l),
(375,540,l),
(435,540,l)
);
},
{
closed = 1;
nodes = (
(435,700,l),
(285,700,l),
(285,640,l),
(435,640,l)
);
}
);
width = 470;
},
{
layerId = m002;
shapes = (
{
closed = 1;
nodes = (
(215,0,l),
(215,700,l),
(155,700,l),
(155,0,l)
);
},
{
closed = 1;
nodes = (
(185,0,l),
(185,60,l),
(35,60,l),
(35,0,l)
);
},
{
closed = 1;
nodes = (
(95,60,l),
(95,160,l),
(35,160,l),
(35,60,l)
);
},
{
closed = 1;
nodes = (
(335,640,l),
(275,640,l),
(275,540,l),
(335,540,l)
);
},
{
closed = 1;
nodes = (
(335,700,l),
(185,700,l),
(185,640,l),
(335,640,l)
);
}
);
width = 370;
}
);
metricLeft = "=H/2";
metricRight = "=H/2";
unicode = 53;
},
{
glyphname = six;
lastChange = "2024-11-27 14:21:36 +0000";
layers = (
{
layerId = m01;
shapes = (
{
closed = 1;
nodes = (
(70,0,l),
(230,0,l),
(230,700,l),
(70,700,l)
);
},
{
closed = 1;
nodes = (
(350,0,l),
(350,380,l),
(290,380,l),
(290,0,l)
);
},
{
closed = 1;
nodes = (
(314,380,l),
(139,380,l),
(139,320,l),
(314,320,l)
);
},
{
closed = 1;
nodes = (
(314,60,l),
(139,60,l),
(139,0,l),
(314,0,l)
);
},
{
closed = 1;
nodes = (
(350,640,l),
(290,640,l),
(290,540,l),
(350,540,l)
);
},
{
closed = 1;
nodes = (
(350,700,l),
(200,700,l),
(200,640,l),
(350,640,l)
);
}
);
width = 385;
},
{
layerId = m002;
shapes = (
{
closed = 1;
nodes = (
(70,0,l),
(130,0,l),
(130,700,l),
(70,700,l)
);
},
{
closed = 1;
nodes = (
(250,0,l),
(250,380,l),
(190,380,l),
(190,0,l)
);
},
{
closed = 1;
nodes = (
(214,380,l),
(70,380,l),
(70,320,l),
(214,320,l)
);
},
{
closed = 1;
nodes = (
(214,60,l),
(70,60,l),
(70,0,l),
(214,0,l)
);
},
{
closed = 1;
nodes = (
(250,640,l),
(190,640,l),
(190,540,l),
(250,540,l)
);
},
{
closed = 1;
nodes = (
(250,700,l),
(70,700,l),
(70,640,l),
(250,640,l)
);
}
);
width = 285;
}
);
metricLeft = H;
metricRight = "=H/2";
unicode = 54;
},
{
glyphname = seven;
lastChange = "2024-11-27 14:21:45 +0000";
layers = (
{
layerId = m01;
shapes = (
{
closed = 1;
nodes = (
(315,0,l),
(315,700,l),
(155,700,l),
(155,0,l)
);
},
{
closed = 1;
nodes = (
(375,320,l),
(375,380,l),
(95,380,l),
(95,320,l)
);
},
{
closed = 1;
nodes = (
(95,540,l),
(95,640,l),
(35,640,l),
(35,540,l)
);
},
{
closed = 1;
nodes = (
(185,640,l),
(185,700,l),
(35,700,l),
(35,640,l)
);
}
);
width = 410;
},
{
layerId = m002;
shapes = (
{
closed = 1;
nodes = (
(215,0,l),
(215,700,l),
(155,700,l),
(155,0,l)
);
},
{
closed = 1;
nodes = (
(275,320,l),
(275,380,l),
(95,380,l),
(95,320,l)
);
},
{
closed = 1;
nodes = (
(95,540,l),
(95,640,l),
(35,640,l),
(35,540,l)
);
},
{
closed = 1;
nodes = (
(185,640,l),
(185,700,l),
(35,700,l),
(35,640,l)
);
}
);
width = 310;
}
);
metricLeft = "=H/2";
metricRight = "=H/2";
unicode = 55;
},
{
glyphname = eight;
lastChange = "2024-11-27 14:22:39 +0000";
layers = (
{
layerId = m01;
shapes = (
{
closed = 1;
nodes = (
(71,700,l),
(71,0,l)
);
},
{
closed = 1;
nodes = (
(291,0,l),
(451,0,l),
(451,700,l),
(291,700,l)
);
},
{
closed = 1;
nodes = (
(70,0,l),
(231,0,l),
(231,700,l),
(70,700,l)
);
},
{
closed = 1;
nodes = (
(355,700,l),
(175,700,l),
(175,640,l),
(355,640,l)
);
},
{
closed = 1;
nodes = (
(355,60,l),
(175,60,l),
(175,0,l),
(355,0,l)
);
},
{
closed = 1;
nodes = (
(355,380,l),
(175,380,l),
(175,321,l),
(355,321,l)
);
}
);
width = 521;
},
{
layerId = m002;
shapes = (
{
closed = 1;
nodes = (
(190,0,l),
(250,0,l),
(250,700,l),
(190,700,l)
);
},
{
closed = 1;
nodes = (
(70,0,l),
(130,0,l),
(130,700,l),
(70,700,l)
);
},
{
closed = 1;
nodes = (
(250,700,l),
(70,700,l),
(70,640,l),
(250,640,l)
);
},
{
closed = 1;
nodes = (
(250,60,l),
(70,60,l),
(70,0,l),
(250,0,l)
);
},
{
closed = 1;
nodes = (
(250,380,l),
(70,380,l),
(70,321,l),
(250,321,l)
);
}
);
width = 320;
}
);
metricLeft = H;
metricRight = H;
unicode = 56;
},
{
glyphname = nine;
lastChange = "2024-11-27 14:22:49 +0000";
layers = (
{
layerId = m01;
shapes = (
{
closed = 1;
nodes = (
(185,319,l),
(35,319,l),
(35,700,l),
(345,700,l),
(345,0,l),
(185,0,l)
);
},
{
closed = 1;
nodes = (
(95,380,l),
(185,380,l),
(185,638,l),
(95,638,l)
);
},
{
closed = 1;
nodes = (
(185,0,l),
(185,60,l),
(35,60,l),
(35,0,l)
);
},
{
closed = 1;
nodes = (
(95,60,l),
(95,160,l),
(35,160,l),
(35,60,l)
);
}
);
width = 415;
},
{
layerId = m002;
shapes = (
{
closed = 1;
nodes = (
(185,319,l),
(35,319,l),
(35,700,l),
(245,700,l),
(245,0,l),
(185,0,l)
);
},
{
closed = 1;
nodes = (
(95,380,l),
(185,380,l),
(185,638,l),
(95,638,l)
);
},
{
closed = 1;
nodes = (
(185,0,l),
(185,60,l),
(35,60,l),
(35,0,l)
);
},
{
closed = 1;
nodes = (
(95,60,l),
(95,160,l),
(35,160,l),
(35,60,l)
);
}
);
width = 315;
}
);
metricLeft = "=H/2";
metricRight = H;
unicode = 57;
},
{
glyphname = period;
lastChange = "2024-11-27 14:06:55 +0000";
layers = (
{
layerId = m01;
shapes = (
{
closed = 1;
nodes = (
(111,0,l),
(111,76,l),
(35,76,l),
(35,0,l)
);
}
);
width = 146;
},
{
layerId = m002;
shapes = (
{
closed = 1;
nodes = (
(111,0,l),
(111,76,l),
(35,76,l),
(35,0,l)
);
}
);
width = 146;
}
);
metricLeft = "=H/2";
metricRight = "=H/2";
unicode = 46;
},
{
glyphname = comma;
lastChange = "2024-11-27 14:06:55 +0000";
layers = (
{
layerId = m01;
shapes = (
{
closed = 1;
nodes = (
(92,-143,l),
(92,114,l),
(35,114,l),
(35,-143,l)
);
}
);
width = 127;
},
{
layerId = m002;
shapes = (
{
closed = 1;
nodes = (
(92,-143,l),
(92,114,l),
(35,114,l),
(35,-143,l)
);
}
);
width = 127;
}
);
metricLeft = "=H/2";
metricRight = "=H/2";
unicode = 44;
},
{
glyphname = exclam;
lastChange = "2024-11-27 14:06:55 +0000";
layers = (
{
layerId = m01;
shapes = (
{
closed = 1;
nodes = (
(82,677,l),
(82,162,l),
(158,162,l),
(158,677,l)
);
},
{
pos = (47,0);
ref = period;
}
);
width = 240;
},
{
layerId = m002;
shapes = (
{
closed = 1;
nodes = (
(82,677,l),
(82,162,l),
(158,162,l),
(158,677,l)
);
},
{
pos = (47,0);
ref = period;
}
);
width = 240;
}
);
unicode = 33;
},
{
glyphname = question;
lastChange = "2024-11-27 14:06:55 +0000";
layers = (
{
layerId = m01;
shapes = (
{
closed = 1;
nodes = (
(286,150,l),
(218,150,l),
(218,639,l),
(96,639,l),
(96,487,l),
(35,487,l),
(35,700,l),
(286,700,l)
);
},
{
pos = (180,0);
ref = period;
}
);
width = 460;
},
{
layerId = m002;
shapes = (
{
closed = 1;
nodes = (
(286,150,l),
(218,150,l),
(218,639,l),
(96,639,l),
(96,487,l),
(35,487,l),
(35,700,l),
(286,700,l)
);
},
{
pos = (180,0);
ref = period;
}
);
width = 460;
}
);
unicode = 63;
},
{
glyphname = bullet;
lastChange = "2024-11-27 14:06:55 +0000";
layers = (
{
layerId = m01;
shapes = (
{
closed = 1;
nodes = (
(364,178,l),
(364,307,l),
(235,307,l),
(235,178,l)
);
}
);
width = 600;
},
{
layerId = m002;
shapes = (
{
closed = 1;
nodes = (
(364,178,l),
(364,307,l),
(235,307,l),
(235,178,l)
);
}
);
width = 600;
}
);
unicode = 8226;
},
{
glyphname = asterisk;
lastChange = "2024-11-27 14:06:55 +0000";
layers = (
{
layerId = m01;
shapes = (
{
closed = 1;
nodes = (
(205,470,l),
(154,470,l),
(154,698,l),
(205,698,l)
);
},
{
closed = 1;
nodes = (
(65,620,l),
(90,662,l),
(295,548,l),
(270,506,l)
);
},
{
closed = 1;
nodes = (
(90,506,l),
(65,548,l),
(270,662,l),
(295,620,l)
);
}
);
width = 360;
},
{
layerId = m002;
shapes = (
{
closed = 1;
nodes = (
(205,470,l),
(154,470,l),
(154,698,l),
(205,698,l)
);
},
{
closed = 1;
nodes = (
(65,620,l),
(90,662,l),
(295,548,l),
(270,506,l)
);
},
{
closed = 1;
nodes = (
(90,506,l),
(65,548,l),
(270,662,l),
(295,620,l)
);
}
);
width = 360;
}
);
unicode = 42;
},
{
glyphname = numbersign;
lastChange = "2024-11-27 14:06:55 +0000";
layers = (
{
layerId = m01;
shapes = (
{
closed = 1;
nodes = (
(228,400,l),
(157,400,l),
(157,0,l),
(228,0,l)
);
},
{
closed = 1;
nodes = (
(61,259,l),
(506,259,l),
(506,316,l),
(61,316,l)
);
},
{
closed = 1;
nodes = (
(418,400,l),
(347,400,l),
(347,0,l),
(418,0,l)
);
},
{
closed = 1;
nodes = (
(61,84,l),
(506,84,l),
(506,141,l),
(61,141,l)
);
}
);
width = 600;
},
{
layerId = m002;
shapes = (
{
closed = 1;
nodes = (
(228,400,l),
(157,400,l),
(157,0,l),
(228,0,l)
);
},
{
closed = 1;
nodes = (
(61,259,l),
(506,259,l),
(506,316,l),
(61,316,l)
);
},
{
closed = 1;
nodes = (
(418,400,l),
(347,400,l),
(347,0,l),
(418,0,l)
);
},
{
closed = 1;
nodes = (
(61,84,l),
(506,84,l),
(506,141,l),
(61,141,l)
);
}
);
width = 600;
}
);
unicode = 35;
},
{
glyphname = slash;
lastChange = "2024-11-27 14:06:55 +0000";
layers = (
{
layerId = m01;
shapes = (
{
closed = 1;
nodes = (
(338,700,l),
(281,700,l),
(70,0,l),
(127,0,l)
);
}
);
width = 373;
},
{
layerId = m002;
shapes = (
{
closed = 1;
nodes = (
(338,700,l),
(281,700,l),
(70,0,l),
(127,0,l)
);
}
);
width = 373;
}
);
metricLeft = H;
metricRight = "=H/2";
unicode = 47;
},
{
glyphname = backslash;
lastChange = "2024-11-27 14:06:55 +0000";
layers = (
{
layerId = m01;
shapes = (
{
closed = 1;
nodes = (
(432,0,l),
(221,700,l),
(164,700,l),
(375,0,l)
);
}
);
width = 600;
},
{
layerId = m002;
shapes = (
{
closed = 1;
nodes = (
(432,0,l),
(221,700,l),
(164,700,l),
(375,0,l)
);
}
);
width = 600;
}
);
unicode = 92;
},
{
glyphname = hyphen;
lastChange = "2024-11-27 14:06:55 +0000";
layers = (
{
layerId = m01;
shapes = (
{
closed = 1;
nodes = (
(382,299,l),
(35,299,l),
(35,242,l),
(382,242,l)
);
}
);
width = 417;
},
{
layerId = m002;
shapes = (
{
closed = 1;
nodes = (
(382,299,l),
(35,299,l),
(35,242,l),
(382,242,l)
);
}
);
width = 417;
}
);
metricLeft = "=H/2";
metricRight = "=H/2";
unicode = 45;
},
{
glyphname = endash;
lastChange = "2024-11-27 14:06:55 +0000";
layers = (
{
layerId = m01;
shapes = (
{
closed = 1;
nodes = (
(517,298,l),
(60,298,l),
(60,241,l),
(517,241,l)
);
}
);
width = 600;
},
{
layerId = m002;
shapes = (
{
closed = 1;
nodes = (
(517,298,l),
(60,298,l),
(60,241,l),
(517,241,l)
);
}
);
width = 600;
}
);
unicode = 8211;
},
{
glyphname = at;
lastChange = "2024-11-27 14:25:24 +0000";
layers = (
{
layerId = m01;
shapes = (
{
closed = 1;
nodes = (
(587,476,l),
(40,476,l),
(40,533,l),
(644,533,l),
(644,-131,l),
(40,-131,l),
(40,400,l),
(514,400,l),
(514,0,l),
(171,0,l),
(171,229,l),
(342,229,l),
(342,343,l),
(97,343,l),
(97,-74,l),
(587,-74,l)
);
},
{
closed = 1;
nodes = (
(228,57,l),
(342,57,l),
(342,171,l),
(228,171,l)
);
}
);
width = 700;
},
{
layerId = m002;
shapes = (
{
closed = 1;
nodes = (
(530,-119,l),
(530,523,l),
(70,523,l),
(70,463,l),
(470,463,l),
(470,-60,l),
(130,-60,l),
(130,343,l),
(350,343,l),
(350,229,l),
(190,229,l),
(190,0,l),
(410,0,l),
(410,403,l),
(70,403,l),
(70,-119,l)
);
},
{
closed = 1;
nodes = (
(250,169,l),
(350,169,l),
(350,60,l),
(250,60,l)
);
}
);
width = 600;
}
);
metricLeft = H;
metricRight = H;
unicode = 64;
},
{
glyphname = ampersand;
lastChange = "2024-11-27 14:26:34 +0000";
layers = (
{
layerId = m01;
shapes = (
{
closed = 1;
nodes = (
(533,0,l),
(533,461,l),
(411,461,l),
(411,700,l),
(66,700,l),
(66,0,l)
);
},
{
closed = 1;
nodes = (
(127,401,l),
(411,401,l),
(411,61,l),
(127,61,l)
);
},
{
closed = 1;
nodes = (
(127,639,l),
(289,639,l),
(289,461,l),
(127,461,l)
);
},
{
closed = 1;
nodes = (
(411,-97,l),
(533,-97,l),
(533,33,l),
(411,33,l)
);
}
);
width = 600;
},
{
layerId = m002;
shapes = (
{
closed = 1;
nodes = (
(350,0,l),
(350,461,l),
(290,461,l),
(290,700,l),
(70,700,l),
(70,0,l)
);
},
{
closed = 1;
nodes = (
(130,401,l),
(290,401,l),
(290,60,l),
(130,60,l)
);
},
{
closed = 1;
nodes = (
(130,640,l),
(230,640,l),
(230,461,l),
(130,461,l)
);
},
{
closed = 1;
nodes = (
(290,-97,l),
(350,-97,l),
(350,33,l),
(290,33,l)
);
}
);
width = 420;
}
);
metricLeft = H;
metricRight = H;
unicode = 38;
},
{
glyphname = degree;
lastChange = "2024-11-27 14:06:55 +0000";
layers = (
{
layerId = m01;
shapes = (
{
closed = 1;
nodes = (
(278,469,l),
(278,698,l),
(50,698,l),
(50,469,l)
);
},
{
closed = 1;
nodes = (
(107,641,l),
(221,641,l),
(221,526,l),
(107,526,l)
);
}
);
width = 320;
},
{
layerId = m002;
shapes = (
{
closed = 1;
nodes = (
(278,469,l),
(278,698,l),
(50,698,l),
(50,469,l)
);
},
{
closed = 1;
nodes = (
(107,641,l),
(221,641,l),
(221,526,l),
(107,526,l)
);
}
);
width = 320;
}
);
unicode = 176;
},
{
glyphname = bar;
lastChange = "2024-11-27 14:06:55 +0000";
layers = (
{
layerId = m01;
shapes = (
{
closed = 1;
nodes = (
(229,-143,l),
(229,800,l),
(172,800,l),
(172,-143,l)
);
}
);
width = 400;
},
{
layerId = m002;
shapes = (
{
closed = 1;
nodes = (
(229,-143,l),
(229,800,l),
(172,800,l),
(172,-143,l)
);
}
);
width = 400;
}
);
unicode = 124;
},
{
glyphname = plus;
lastChange = "2024-11-27 14:06:55 +0000";
layers = (
{
layerId = m01;
shapes = (
{
closed = 1;
nodes = (
(417,296,l),
(70,296,l),
(70,239,l),
(417,239,l)
);
},
{
closed = 1;
nodes = (
(215,441,l),
(215,94,l),
(272,94,l),
(272,441,l)
);
}
);
width = 487;
},
{
layerId = m002;
shapes = (
{
closed = 1;
nodes = (
(417,296,l),
(70,296,l),
(70,239,l),
(417,239,l)
);
},
{
closed = 1;
nodes = (
(215,441,l),
(215,94,l),
(272,94,l),
(272,441,l)
);
}
);
width = 487;
}
);
metricLeft = H;
metricRight = H;
unicode = 43;
},
{
glyphname = multiply;
lastChange = "2024-11-27 14:06:55 +0000";
layers = (
{
layerId = m01;
shapes = (
{
closed = 1;
nodes = (
(357,465,l),
(272,465,l),
(57,121,l),
(142,121,l)
);
},
{
closed = 1;
nodes = (
(357,121,l),
(148,466,l),
(64,466,l),
(272,121,l)
);
}
);
width = 400;
},
{
layerId = m002;
shapes = (
{
closed = 1;
nodes = (
(357,465,l),
(272,465,l),
(57,121,l),
(142,121,l)
);
},
{
closed = 1;
nodes = (
(357,121,l),
(148,466,l),
(64,466,l),
(272,121,l)
);
}
);
width = 400;
}
);
unicode = 215;
},
{
glyphname = dieresiscomb;
lastChange = "2024-11-27 14:06:55 +0000";
layers = (
{
anchors = (
{
name = _top;
pos = (143,400);
},
{
name = top;
pos = (170,564);
}
);
layerId = m01;
shapes = (
{
closed = 1;
nodes = (
(130,504,l),
(130,564,l),
(70,564,l),
(70,504,l)
);
},
{
closed = 1;
nodes = (
(250,504,l),
(250,564,l),
(190,564,l),
(190,504,l)
);
}
);
width = 320;
},
{
anchors = (
{
name = _top;
pos = (143,400);
},
{
name = top;
pos = (170,564);
}
);
layerId = m002;
shapes = (
{
closed = 1;
nodes = (
(130,504,l),
(130,564,l),
(70,564,l),
(70,504,l)
);
},
{
closed = 1;
nodes = (
(250,504,l),
(250,564,l),
(190,564,l),
(190,504,l)
);
}
);
width = 320;
}
);
metricLeft = H;
metricRight = H;
unicode = 776;
},
{
glyphname = dotaccentcomb;
lastChange = "2024-11-27 14:06:55 +0000";
layers = (
{
layerId = m01;
shapes = (
{
closed = 1;
nodes = (
(188,488,l),
(188,564,l),
(112,564,l),
(112,488,l)
);
}
);
width = 300;
},
{
layerId = m002;
shapes = (
{
closed = 1;
nodes = (
(188,488,l),
(188,564,l),
(112,564,l),
(112,488,l)
);
}
);
width = 300;
}
);
unicode = 775;
},
{
glyphname = acutecomb;
lastChange = "2024-11-27 14:06:55 +0000";
layers = (
{
anchors = (
{
name = _top;
pos = (122,498);
},
{
name = top;
pos = (122,799);
}
);
layerId = m01;
shapes = (
{
closed = 1;
nodes = (
(150,550,l),
(150,700,l),
(90,700,l),
(90,550,l)
);
}
);
width = 240;
},
{
anchors = (
{
name = _top;
pos = (122,498);
},
{
name = top;
pos = (122,799);
}
);
layerId = m002;
shapes = (
{
closed = 1;
nodes = (
(150,550,l),
(150,700,l),
(90,700,l),
(90,550,l)
);
}
);
width = 240;
}
);
unicode = 769;
},
{
glyphname = hungarumlautcomb;
lastChange = "2024-11-27 14:06:55 +0000";
layers = (
{
anchors = (
{
name = _top;
pos = (160,401);
},
{
name = top;
pos = (79,800);
}
);
layerId = m01;
shapes = (
{
closed = 1;
nodes = (
(130,457,l),
(130,607,l),
(70,607,l),
(70,457,l)
);
},
{
closed = 1;
nodes = (
(250,458,l),
(250,608,l),
(190,607,l),
(190,457,l)
);
}
);
width = 320;
},
{
anchors = (
{
name = _top;
pos = (160,401);
},
{
name = top;
pos = (79,800);
}
);
layerId = m002;
shapes = (
{
closed = 1;
nodes = (
(130,457,l),
(130,607,l),
(70,607,l),
(70,457,l)
);
},
{
closed = 1;
nodes = (
(250,458,l),
(250,608,l),
(190,607,l),
(190,457,l)
);
}
);
width = 320;
}
);
metricLeft = H;
metricRight = H;
unicode = 779;
},
{
glyphname = circumflexcomb;
lastChange = "2024-11-27 14:06:55 +0000";
layers = (
{
anchors = (
{
name = _top;
pos = (158,469);
},
{
name = top;
pos = (158,700);
}
);
layerId = m01;
shapes = (
{
closed = 1;
nodes = (
(250,649,l),
(70,649,l),
(70,529,l),
(130,529,l),
(130,589,l),
(190,589,l),
(190,529,l),
(250,529,l)
);
}
);
width = 320;
},
{
anchors = (
{
name = _top;
pos = (158,469);
},
{
name = top;
pos = (158,700);
}
);
layerId = m002;
shapes = (
{
closed = 1;
nodes = (
(250,649,l),
(70,649,l),
(70,529,l),
(130,529,l),
(130,589,l),
(190,589,l),
(190,529,l),
(250,529,l)
);
}
);
width = 320;
}
);
metricLeft = H;
metricRight = H;
unicode = 770;
},
{
glyphname = caroncomb;
lastChange = "2024-11-27 14:06:55 +0000";
layers = (
{
anchors = (
{
name = _top;
pos = (160,428);
},
{
name = top;
pos = (160,700);
}
);
layerId = m01;
shapes = (
{
closed = 1;
nodes = (
(190,608,l),
(190,548,l),
(130,548,l),
(130,608,l),
(70,608,l),
(70,488,l),
(250,488,l),
(250,608,l)
);
}
);
width = 320;
},
{
anchors = (
{
name = _top;
pos = (160,428);
},
{
name = top;
pos = (160,700);
}
);
layerId = m002;
shapes = (
{
closed = 1;
nodes = (
(190,608,l),
(190,548,l),
(130,548,l),
(130,608,l),
(70,608,l),
(70,488,l),
(250,488,l),
(250,608,l)
);
}
);
width = 320;
}
);
metricLeft = H;
metricRight = H;
unicode = 780;
},
{
glyphname = ringcomb;
lastChange = "2024-11-27 14:06:55 +0000";
layers = (
{
anchors = (
{
name = _top;
pos = (160,400);
},
{
name = top;
pos = (160,700);
}
);
layerId = m01;
shapes = (
{
closed = 1;
nodes = (
(250,648,l),
(70,648,l),
(70,528,l),
(130,528,l),
(130,588,l),
(190,588,l),
(190,529,l),
(250,529,l)
);
},
{
closed = 1;
nodes = (
(190,588,l),
(190,528,l),
(130,528,l),
(130,588,l),
(70,588,l),
(70,468,l),
(250,468,l),
(250,588,l)
);
}
);
width = 320;
},
{
anchors = (
{
name = _top;
pos = (160,400);
},
{
name = top;
pos = (160,700);
}
);
layerId = m002;
shapes = (
{
closed = 1;
nodes = (
(250,648,l),
(70,648,l),
(70,528,l),
(130,528,l),
(130,588,l),
(190,588,l),
(190,529,l),
(250,529,l)
);
},
{
closed = 1;
nodes = (
(190,588,l),
(190,528,l),
(130,528,l),
(130,588,l),
(70,588,l),
(70,468,l),
(250,468,l),
(250,588,l)
);
}
);
width = 320;
}
);
metricLeft = H;
metricRight = H;
unicode = 778;
},
{
glyphname = "aha-mark";
lastChange = "2024-11-27 14:06:55 +0000";
layers = (
{
layerId = m01;
shapes = (
{
attr = {
fillColor = (45,56,75,255);
};
closed = 1;
nodes = (
(652,118,o),
(514,-49,o),
(343,-82,c),
(173,-115,o),
(35,-3,o),
(35,169,c),
(35,341,o),
(173,508,o),
(343,541,c),
(514,575,o),
(652,462,o),
(652,290,c)
);
},
{
attr = {
fillColor = (45,56,75,255);
};
closed = 1;
nodes = (
(342,308,l),
(277,409,l),
(220,365,l),
(286,265,l),
(103,229,l),
(103,157,l),
(258,188,l),
(190,91,l),
(256,46,l),
(345,173,l),
(428,44,l),
(485,88,l),
(401,216,l),
(584,254,l),
(584,324,l),
(428,292,l),
(490,383,l),
(425,426,l)
);
}
);
width = 687;
},
{
layerId = m002;
shapes = (
{
attr = {
fillColor = (45,56,75,255);
};
closed = 1;
nodes = (
(652,118,o),
(514,-49,o),
(343,-82,c),
(173,-115,o),
(35,-3,o),
(35,169,c),
(35,341,o),
(173,508,o),
(343,541,c),
(514,575,o),
(652,462,o),
(652,290,c)
);
},
{
attr = {
fillColor = (45,56,75,255);
};
closed = 1;
nodes = (
(342,308,l),
(277,409,l),
(220,365,l),
(286,265,l),
(103,229,l),
(103,157,l),
(258,188,l),
(190,91,l),
(256,46,l),
(345,173,l),
(428,44,l),
(485,88,l),
(401,216,l),
(584,254,l),
(584,324,l),
(428,292,l),
(490,383,l),
(425,426,l)
);
}
);
width = 687;
}
);
metricLeft = "=H/2";
metricRight = "=H/2";
unicode = 61800;
},
{
glyphname = "aha-star";
lastChange = "2024-11-27 14:06:55 +0000";
layers = (
{
layerId = m01;
shapes = (
{
attr = {
fillColor = (45,56,75,255);
};
closed = 1;
nodes = (
(274,308,l),
(209,409,l),
(152,365,l),
(218,265,l),
(35,229,l),
(35,157,l),
(190,188,l),
(122,91,l),
(188,46,l),
(277,173,l),
(360,44,l),
(417,88,l),
(333,216,l),
(516,254,l),
(516,324,l),
(360,292,l),
(422,383,l),
(357,426,l)
);
}
);
width = 551;
},
{
layerId = m002;
shapes = (
{
attr = {
fillColor = (45,56,75,255);
};
closed = 1;
nodes = (
(274,308,l),
(209,409,l),
(152,365,l),
(218,265,l),
(35,229,l),
(35,157,l),
(190,188,l),
(122,91,l),
(188,46,l),
(277,173,l),
(360,44,l),
(417,88,l),
(333,216,l),
(516,254,l),
(516,324,l),
(360,292,l),
(422,383,l),
(357,426,l)
);
}
);
width = 551;
}
);
metricLeft = "=H/2";
metricRight = "=H/2";
unicode = 61801;
},
{
export = 0;
glyphname = WIP;
lastChange = "2024-11-27 14:06:55 +0000";
layers = (
{
layerId = m01;
shapes = (
{
closed = 1;
nodes = (
(318,700,l),
(157,700,l),
(310,0,l),
(477,0,l)
);
}
